<svg id="Layer_1" data-name="Layer 1" xmlns="http://www.w3.org/2000/svg" viewBox="0 0 2137 705.6"><defs><style>.cls-1{fill:#fffefe;}.cls-2{fill:#38485f;}.cls-3{fill:#39495f;}.cls-4{fill:#f17053;}.cls-5{fill:#37475e;}.cls-6{fill:#ffd962;}</style></defs><title>retainful</title><path class="cls-1" d="M1745,321.9c-.1-6.8-.2-13.5-.4-20.3-.7-19.3-12.3-29.8-32.7-29.7s-31.3,11.1-31.7,29.7c-.3,13.9-.3,27.8,0,41.6.7,37.3-2.4,74.7,1.9,111.9,3.6,30.1,15.6,55.8,44.8,69,33.2,15,90.7,16.6,121.2-29.3.3-.4,1.2-.4,2.5-.8v8.4c.3,18.8,11.3,29.6,30,29.8s32.4-11.6,32.5-29.2q.5-101,0-201.7c0-18.7-11.9-29.2-31.7-29.4s-31.6,10.6-32.6,28.9c-.3,7.1-.2,14.2-.3,21.3Zm-808.4,172c.3,2.7.5,3.7.5,4.7.7,22.1,11.3,33.1,31.7,32.8s30.1-11.2,30.1-34c0-33.7.1-67.5,0-101.3,0-16,.3-31.9-1.9-47.9-5.7-39.6-28.4-65.8-67.6-74-43.9-9.1-86.1-2.2-126.3,17.4a46.9,46.9,0,0,0-11.3,7.9c-9.5,8.9-11.2,24.7-4.2,35.2s16.3,11,29.6,5.5c2-.8,3.9-1.9,5.8-2.7,22.9-8.7,45.7-18.1,70.8-17.7,27.8.5,41.8,14.4,43.2,42,.2,4-.1,7.9.2,11.8s-1.3,6.2-6,6.1c-8.5-.3-17.1-.3-25.6.1-29.4,1.5-59,2.2-87.2,12.5-16.9,6.1-31.5,15.3-37.7,33.4-9.3,26.6-6.3,51.6,11.1,74.5C821.5,539.5,903.1,550.6,936.6,493.9Zm322.7-182.8c-.6-6.3-.8-10.5-1.4-14.6-2.2-15.5-15.1-25.6-31.8-24.9s-30.6,11.1-30.6,27.5q-.6,102.9,0,205.8c0,14.4,9,23.5,23.2,26.3,25.1,5,40.9-7.9,41-33.4,0-37.7-.6-75.4.2-113.1.9-44.4,33.6-70.4,75.2-61.2,13.3,2.9,22,10.8,26.9,23.2s4.6,22.9,4.6,34.7c0,39.4-.1,78.9.1,118.4.1,20.2,11.6,31.7,31.6,32.5s33.4-10.9,33.3-30.6c-.1-50.8,2.4-101.6-1.5-152.4-3.1-39.9-24.3-67.6-59.4-75.4C1327.7,264.4,1289.6,273,1259.3,311.1ZM453.9,414.8c23.5,0,46.9.2,70.4,0,13.9-.2,19.8-5.2,21.7-17.1,6.7-41.6-18.4-93.1-55.3-113.5-58.9-32.7-137.2-7.8-166.3,53-13.4,27.8-16,57.3-12.4,87.4,5.5,45.2,27.6,80,70.8,97.3,49.6,19.9,98.1,13.7,144.5-11.8a34.8,34.8,0,0,0,13.6-13.3c5.3-9.6,4.1-23.1-2.9-30.9s-17.2-6.5-26.4-2.8c-3.7,1.5-7.1,3.4-10.6,5-17.2,7.7-34.6,14.6-53.9,15.4-41.2,1.5-67.2-20.2-71.6-59.6-.7-6.9.6-9.4,8-9.2C407,415.1,430.5,414.8,453.9,414.8Zm1060.2,3c0,27-.2,54,0,81,.2,20.2,10.3,31.1,29.1,32.5,23.5,1.6,36.1-10.2,36.1-33.9.1-53.7.3-107.4-.2-161.1-.1-9.2,2.6-11.2,11.2-10.8,13.5.6,27.1.7,40.5-.8,15-1.6,22-11.1,21.2-25.5s-9.2-21.5-23.9-22.2c-10.6-.5-21.3-.2-32-.2-17.3,0-17.3,0-16.6-17.5,1-27.4,13.9-41.2,41.2-45.2,8.5-1.2,17.1-.4,25.4-3.1,12.2-3.9,17.5-11.6,16.9-24.9-.5-11.4-6.9-17.9-19.1-20.6s-23.5-.4-35.1.7c-41.2,4.2-73.1,22.1-88,63.2a107.5,107.5,0,0,0-6.2,37.6c.1,9.1-3.6,10.4-11.2,10a121.9,121.9,0,0,0-23.4.4c-13,1.6-19.7,9.5-20.1,22.1-.5,14.1,5,21.5,18,24.8,9.2,2.3,18.5,1.6,27.6,1.2,7.3-.3,8.8,2.3,8.7,9.1C1513.9,362.3,1514.1,390,1514.1,417.8ZM612.7,391.1h.1c0,18.1-.6,36.3.1,54.4,1,25.6,7.7,49.6,29.4,65.8,27,20.2,58.5,21.7,90.6,18.9a18.1,18.1,0,0,0,5.9-2.1c9.7-4.8,14-12.7,13.2-23.5s-6.6-17.1-16.8-19.2c-6.6-1.3-13.4-1.5-20-2.3-27.4-3.3-37.4-13.9-37.8-41.6-.4-36,.1-71.9-.2-107.8-.1-6.9,2.3-8.3,8.6-8.1,12.8.3,25.6.5,38.4-.1,17-.9,26.1-10.1,25.9-24.9s-10-23.4-26.9-23.7c-12.1-.2-24.3-.7-36.3.1-8.5.6-10.1-2.6-9.8-10.2.6-12.8.5-25.6.1-38.4-.7-18.5-12.9-29.6-32-29.6s-32.1,11.5-32.5,30.3c-.2,12.8-.4,25.6.2,38.4.3,7.2-1.4,9.9-9.2,9.6-9.5-.4-19.2-1.6-28.6,1.1-11.9,3.5-17.7,11.5-17.3,23.7s6.1,18.9,17.8,22.2c9.1,2.5,18.4,2,27.5,1.4s10,2.4,9.8,10.1C612.3,354.1,612.7,372.6,612.7,391.1ZM2045,348.4c0-51.5.1-103.1,0-154.7,0-15.6-7.2-26.1-21.1-29.4-19.4-4.6-43.9.9-43.6,32.3.7,100.3.2,200.6.2,300.8a94.6,94.6,0,0,0,.6,10.7c1,7.7,4.4,14.3,11.2,18.4,12.2,7.4,25.1,7.8,37.7,1.7s15.2-16.7,15.1-29.4C2044.9,448.7,2045,398.5,2045,348.4ZM194,315.6c0-5.9.3-11.8-.1-17.7-1.2-16.3-13.1-26.5-30.3-26.4s-30.7,10.9-31.2,27.8c-.3,10.7-.1,21.4-.1,32q0,84.8.1,169.5c0,17,7.5,26.9,22.6,30.2,25.3,5.6,41.7-7.4,41.8-33.4.1-33.8,0-67.5.1-101.3.1-43.3,21-65.4,64.4-68.3,8.5-.5,17-1.4,25.1-4.4,11.7-4.3,17.3-15,15.8-29.3s-8.3-20.9-21.4-22.5c-9.3-1.1-18.5.2-27.5,2C227.7,279,207.9,292.5,194,315.6Zm935.1,86.8c0-33,.1-66.1-.1-99.2-.1-17.2-8.5-27.6-23.8-30.7-25.2-5-41.2,7.5-41.3,33.2q-.3,96,0,192.1a76,76,0,0,0,1,10.6c1.8,12.4,9.3,19.5,21.1,22.5,25.5,6.3,43-7.3,43.1-33.5C1129.2,465.8,1129.1,434.1,1129.1,402.4Zm-33.4-176.6c23.8.1,38.6-12.7,38.9-33.9s-15-34.4-37.4-34.6c-24-.2-38.9,12.4-39.2,33.5S1072.1,225.7,1095.7,225.8Z"/><path class="cls-2" d="M936.6,493.9c-33.5,56.7-115.1,45.6-144.8,6.3-17.4-22.9-20.4-47.9-11.1-74.5,6.2-18.1,20.8-27.3,37.7-33.4,28.2-10.3,57.8-11,87.2-12.5,8.5-.4,17.1-.4,25.6-.1,4.7.1,6.4-1.5,6-6.1s0-7.8-.2-11.8c-1.4-27.6-15.4-41.5-43.2-42-25.1-.4-47.9,9-70.8,17.7-1.9.8-3.8,1.9-5.8,2.7-13.3,5.5-23.5,3.5-29.6-5.5s-5.3-26.3,4.2-35.2a46.9,46.9,0,0,1,11.3-7.9c40.2-19.6,82.4-26.5,126.3-17.4,39.2,8.2,61.9,34.4,67.6,74,2.2,16,1.9,31.9,1.9,47.9.1,33.8,0,67.6,0,101.3,0,22.8-9.7,33.7-30.1,34s-31-10.7-31.7-32.8C937.1,497.6,936.9,496.6,936.6,493.9Zm-28-79.8c-16,1.3-32,1.3-47.4,6.3-18.4,5.9-26,20.4-20.7,39.1,4.3,15.1,17.2,25.4,33.5,26.6,34.5,2.6,60.9-20.7,63-55.7,1.1-16.6,1.1-16.5-15.7-16.3Z"/><path class="cls-2" d="M1259.3,311.1c30.3-38.1,68.4-46.7,111.4-37.2,35.1,7.8,56.3,35.5,59.4,75.4,3.9,50.8,1.4,101.6,1.5,152.4.1,19.7-13.8,31.4-33.3,30.6s-31.5-12.3-31.6-32.5c-.2-39.5-.1-79-.1-118.4,0-11.8-.2-23.5-4.6-34.7s-13.6-20.3-26.9-23.2c-41.6-9.2-74.3,16.8-75.2,61.2-.8,37.7-.2,75.4-.2,113.1-.1,25.5-15.9,38.4-41,33.4-14.2-2.8-23.2-11.9-23.2-26.3q-.4-102.9,0-205.8c0-16.4,12.5-26.8,30.6-27.5s29.6,9.4,31.8,24.9C1258.5,300.6,1258.7,304.8,1259.3,311.1Z"/><path class="cls-3" d="M453.9,414.8c-23.4,0-46.9.3-70.4-.1-7.4-.2-8.7,2.3-8,9.2,4.4,39.4,30.4,61.1,71.6,59.6,19.3-.8,36.7-7.7,53.9-15.4,3.5-1.6,6.9-3.5,10.6-5,9.2-3.7,18.5-6,26.4,2.8s8.2,21.3,2.9,30.9a34.8,34.8,0,0,1-13.6,13.3c-46.4,25.5-94.9,31.7-144.5,11.8-43.2-17.3-65.3-52.1-70.8-97.3-3.6-30.1-1-59.6,12.4-87.4,29.1-60.8,107.4-85.7,166.3-53,36.9,20.4,62,71.9,55.3,113.5-1.9,11.9-7.8,16.9-21.7,17.1C500.8,415,477.4,414.8,453.9,414.8Zm-21.7-35.2h51.2c2.6-.1,6.4,1.8,7.2-3.4,3.9-23-17-53.1-40.7-58.4-38.2-8.5-71,15.8-74.5,54.8-.5,5.7.9,7.3,6.6,7.2C398.7,379.3,415.5,379.6,432.2,379.6Z"/><path class="cls-4" d="M1848.5,322.1c.1-7.1,0-14.2.3-21.3,1-18.3,13.1-29,32.6-28.9s31.7,10.7,31.7,29.4q.5,100.8,0,201.7c-.1,17.6-13.7,29.3-32.5,29.2s-29.7-11-30-29.8V494c-1.3.4-2.2.4-2.5.8-30.5,45.9-88,44.3-121.2,29.3-29.2-13.2-41.2-38.9-44.8-69-4.3-37.2-1.2-74.6-1.9-111.9-.3-13.8-.3-27.7,0-41.6.4-18.6,12.4-29.6,31.7-29.7s32,10.4,32.7,29.7c.2,6.8.3,13.5.4,20.3-.2,22.3-.7,44.6-.6,67,.2,19.1-1.3,38.2,1.7,57.3s15.3,32.8,34.2,35.3c37,5,67.3-20,68.2-57.1C1849.2,390.3,1848.5,356.2,1848.5,322.1Z"/><path class="cls-3" d="M1514.1,417.8c0-27.8-.2-55.5.1-83.2.1-6.8-1.4-9.4-8.7-9.1-9.1.4-18.4,1.1-27.6-1.2-13-3.3-18.5-10.7-18-24.8.4-12.6,7.1-20.5,20.1-22.1a121.9,121.9,0,0,1,23.4-.4c7.6.4,11.3-.9,11.2-10a107.5,107.5,0,0,1,6.2-37.6c14.9-41.1,46.8-59,88-63.2,11.6-1.1,23.2-3.3,35.1-.7s18.6,9.2,19.1,20.6c.6,13.3-4.7,21-16.9,24.9-8.3,2.7-16.9,1.9-25.4,3.1-27.3,4-40.2,17.8-41.2,45.2-.7,17.5-.7,17.5,16.6,17.5,10.7,0,21.4-.3,32,.2,14.7.7,23,8.9,23.9,22.2s-6.2,23.9-21.2,25.5c-13.4,1.5-27,1.4-40.5.8-8.6-.4-11.3,1.6-11.2,10.8.5,53.7.3,107.4.2,161.1,0,23.7-12.6,35.5-36.1,33.9-18.8-1.4-28.9-12.3-29.1-32.5C1513.9,471.8,1514.1,444.8,1514.1,417.8Z"/><path class="cls-5" d="M612.7,391.1c0-18.5-.4-37,.2-55.5.2-7.7-1.4-10.7-9.8-10.1s-18.4,1.1-27.5-1.4c-11.7-3.3-17.4-10.3-17.8-22.2s5.4-20.2,17.3-23.7c9.4-2.7,19.1-1.5,28.6-1.1,7.8.3,9.5-2.4,9.2-9.6-.6-12.8-.4-25.6-.2-38.4.4-18.8,12.8-30.2,32.5-30.3s31.3,11.1,32,29.6c.4,12.8.5,25.6-.1,38.4-.3,7.6,1.3,10.8,9.8,10.2,12-.8,24.2-.3,36.3-.1,16.9.3,26.7,9,26.9,23.7s-8.9,24-25.9,24.9c-12.8.6-25.6.4-38.4.1-6.3-.2-8.7,1.2-8.6,8.1.3,35.9-.2,71.8.2,107.8.4,27.7,10.4,38.3,37.8,41.6,6.6.8,13.4,1,20,2.3,10.2,2.1,16,8.5,16.8,19.2s-3.5,18.7-13.2,23.5a18.1,18.1,0,0,1-5.9,2.1c-32.1,2.8-63.6,1.3-90.6-18.9-21.7-16.2-28.4-40.2-29.4-65.8-.7-18.1-.1-36.3-.1-54.4Z"/><path class="cls-5" d="M2045,348.4c0,50.1-.1,100.3.1,150.4.1,12.7-3.2,23.5-15.1,29.4s-25.5,5.7-37.7-1.7c-6.8-4.1-10.2-10.7-11.2-18.4a94.6,94.6,0,0,1-.6-10.7c0-100.2.5-200.5-.2-300.8-.3-31.4,24.2-36.9,43.6-32.3,13.9,3.3,21.1,13.8,21.1,29.4C2045.1,245.3,2045,296.9,2045,348.4Z"/><path class="cls-5" d="M194,315.6c13.9-23.1,33.7-36.6,59.3-41.8,9-1.8,18.2-3.1,27.5-2,13.1,1.6,19.9,9,21.4,22.5s-4.1,25-15.8,29.3c-8.1,3-16.6,3.9-25.1,4.4-43.4,2.9-64.3,25-64.4,68.3-.1,33.8,0,67.5-.1,101.3-.1,26-16.5,39-41.8,33.4-15.1-3.3-22.6-13.2-22.6-30.2q-.2-84.7-.1-169.5c0-10.6-.2-21.3.1-32,.5-16.9,12.8-27.6,31.2-27.8s29.1,10.1,30.3,26.4C194.3,303.8,194,309.7,194,315.6Z"/><path class="cls-3" d="M1129.1,402.4c0,31.7.1,63.4,0,95-.1,26.2-17.6,39.8-43.1,33.5-11.8-3-19.3-10.1-21.1-22.5a76,76,0,0,1-1-10.6q-.2-96.2,0-192.1c.1-25.7,16.1-38.2,41.3-33.2,15.3,3.1,23.7,13.5,23.8,30.7C1129.2,336.3,1129.1,369.4,1129.1,402.4Z"/><path class="cls-6" d="M1848.5,322.1c0,34.1.7,68.2,0,102.3-.9,37.1-31.2,62.1-68.2,57.1-18.9-2.5-31.1-15.4-34.2-35.3s-1.5-38.2-1.7-57.3c-.1-22.4.4-44.7.6-67Z"/><path class="cls-3" d="M1095.7,225.8c-23.6-.1-38.1-13.6-37.7-35s15.2-33.7,39.2-33.5c22.4.2,37.7,14.3,37.4,34.6S1119.5,225.9,1095.7,225.8Z"/><path class="cls-1" d="M432.2,379.6c-16.7,0-33.5-.3-50.2.1-5.7.1-7.1-1.5-6.6-7.2,3.5-39,36.3-63.3,74.5-54.8,23.7,5.3,44.6,35.4,40.7,58.4-.8,5.2-4.6,3.3-7.2,3.4Z"/></svg>