<?xml version="1.0" encoding="UTF-8"?> <!-- Generator: Adobe Illustrator 21.0.0, SVG Export Plug-In . SVG Version: 6.00 Build 0) --> <svg xmlns="http://www.w3.org/2000/svg" xmlns:xlink="http://www.w3.org/1999/xlink" id="Layer_1" x="0px" y="0px" viewBox="0 0 344 76.652" style="enable-background:new 0 0 344 76.652;" xml:space="preserve"> <g> <g> <path d="M128.8,32.578c0.849,1.636,0.447,3.37,0.345,5.602c-0.108,2.38,0.092,5.076,0,7.581c-0.052,1.467-0.504,2.961-0.581,4.317 c-0.129,2.241,0.24,4.174-0.351,6.175c-0.116,0.4-0.406,0.853-0.579,1.286c-0.718,1.801-2.414,3.809-4.204,4.896 c-0.897,0.552-3.369,1.252-4.893,1.29c-1.138,0.02-2.273-0.778-3.504-0.236c-1.668-1.208-3.488-2.262-5.367-3.27 c-0.821-1.51-1.045-2.68-1.045-4.895c0-5.242-0.383-10.837-0.117-16.562c0.075-1.717,0.255-3.377,0.234-5.019 c-0.056-3.62-0.73-6.901,1.278-9.793c0.87-1.25,2.255-2.043,3.739-2.919c1.214-0.717,2.023-1.006,3.726-1.167 c3.483-0.331,8.062,1.237,9.919,4.202c0.237,0.376,0.304,1.01,0.582,1.634c0.215,0.484,0.663,0.933,0.817,1.393 C129.395,28.92,129.551,30.984,128.8,32.578z M119.353,55.907c2.117-0.806,1.961-4.202,2.101-7.345 c0.158-3.609,0.345-7.104,0.345-10.381c0-1.934,0.303-3.781,0.236-5.371c-0.05-1.043-0.114-3.024-0.357-3.73 c-0.606-1.843-2.955-2.605-5.008-2.1c-1.034,0.259-2.56,1.675-2.802,2.684c-0.151,0.625,0.034,1.549,0,2.334 c-0.086,2.027-0.477,4.611-0.465,6.414c0.012,2.187,0.331,4.448,0.235,6.534c-0.032,0.588-0.312,1.182-0.351,1.867 c-0.081,1.223,0.159,2.57,0,3.612c-0.071,0.455-0.464,0.958-0.464,1.401c-0.01,0.967,0.806,1.546,0.815,2.681 C114.676,55.55,117.179,56.733,119.353,55.907z"></path> <path d="M159.791,60.132c-0.847-1.487-0.067-2.911,0.12-4.395c0.547-4.346-0.032-9.199,0.238-14.008 c0.145-2.649,0.497-5.292,0.598-7.831c0.027-0.789-0.279-1.605-0.242-2.373c0.026-0.542,0.423-1.213,0.475-1.904 c0.158-2.204,0.123-4.577,0.123-7.473c0-1.765-0.208-4.644,0.351-5.223c1.654-0.383,5.464-0.082,6.885,0 c3.294,0.194,6.823,0.379,9.143,1.9c1.117,0.731,2.718,2.233,3.086,3.082c0.524,1.233,0.468,3.303,0.591,5.342 c0.447,7.789,0.378,15.152-0.711,21.954c-0.155,0.946-0.576,2.208-0.713,3.567c-0.134,1.339-0.023,3.069-0.592,3.913 c-0.181,0.262-0.82,0.561-1.307,0.951c-0.882,0.706-2.242,1.758-3.56,2.017c-0.821,0.16-1.838,0.096-2.731,0.237 C167.865,60.472,163.537,60.225,159.791,60.132z M166.203,48.969c-0.153,0.884-0.728,2.128-0.239,2.967 c0.725,1.251,2.698,0.741,3.917,0.477c3.675-0.79,3.528-2.497,3.918-6.529c0.415-4.321,0.387-7.583,0.358-12.103 c-0.028-3.08,0.453-5.969-0.479-8.188c-1.229-1.127-5.023-2.32-6.648-0.831C166.096,31.562,167.371,42.23,166.203,48.969z"></path> <path d="M74.876,19.639c-0.888-0.072-1.777-0.426-2.669-0.461c-1.323-0.056-2.664,0.326-3.945,0.235 c-0.633-0.048-1.612-0.494-2.317-0.464c-1.995,0.072-0.811,4.283-0.926,6.262c-0.21,3.683-0.125,6.36-0.233,9.389 c-0.104,2.841,0.181,6.029,0,8.696c-0.085,1.265-0.365,2.561-0.35,3.829c0.062,4.257,0.339,8.522,0,12.173 c-0.084,0.917-0.595,1.955-0.113,2.9c1.839,0.453,3.534,0.215,5.218,0.114c2.924-0.174,6.718,0.449,10.086,0.349 c1.266-0.033,2.583-0.077,3.592-0.58c-0.643-1.97-0.011-4.806-0.227-6.494c-2.634-1.321-6.834,0.071-9.977-0.348 c-3.116-0.415-0.971-4.555-1.158-7.537c-0.118-1.908-0.865-3.428,0.469-4.289c2.504-0.47,5.312,0.736,7.88-0.117 c0.494-0.483,0.169-1.346,0.117-2.203c-0.095-1.593,0.164-3.588-0.117-4.983c-1.78-0.935-5.684,0.753-7.88-0.234 c-1.48-0.663-0.582-2.105-0.469-3.246c0.193-1.949-0.993-4.635,0.348-6.147c3.107-0.375,6.607,0.607,9.624-0.46 c-0.298-1.912,0.852-4.903-0.463-6.031C79.245,19.864,77.1,19.831,74.876,19.639z"></path> <path d="M81.369,19.991c1.316,1.13,0.164,4.119,0.463,6.031c-3.017,1.068-6.519,0.086-9.624,0.46 c-1.342,1.512-0.155,4.197-0.348,6.147c-0.112,1.141-1.01,2.582,0.469,3.246c2.196,0.987,6.101-0.702,7.88,0.234 c0.282,1.395,0.023,3.389,0.117,4.983c0.051,0.856,0.377,1.719-0.117,2.203c-2.568,0.853-5.376-0.353-7.88,0.117 c-1.334,0.861-0.587,2.381-0.469,4.289c0.187,2.982-1.958,7.122,1.158,7.537c3.143,0.418,7.343-0.972,9.977,0.348 c0.215,1.688-0.417,4.524,0.227,6.494c-1.008,0.503-2.326,0.546-3.592,0.58c-3.368,0.099-7.162-0.523-10.086-0.349 c-1.684,0.101-3.379,0.338-5.218-0.114c-0.481-0.944,0.031-1.982,0.113-2.9c0.339-3.649,0.062-7.915,0-12.173 c-0.015-1.269,0.264-2.564,0.35-3.829c0.181-2.667-0.104-5.855,0-8.696c0.108-3.028,0.023-5.706,0.233-9.389 c0.114-1.978-1.069-6.19,0.926-6.262c0.704-0.029,1.684,0.418,2.317,0.464c1.28,0.092,2.621-0.291,3.945-0.235 c0.892,0.035,1.78,0.389,2.669,0.461C77.1,19.831,79.245,19.864,81.369,19.991z"></path> <path d="M141.758,19.307c0.855,2.05,0.812,4.773,2.202,6.494c-0.147,2.973,1.846,3.792,2.087,6.376 c0.595,1.439,1.785,2.794,2.439,4.289c0.357,0.819,0.262,2.085,1.386,2.319c0.96-1.279,0.297-3.008,0.354-4.522 c0.028-0.827,0.365-1.64,0.341-2.436c-0.026-1.159-0.108-2.129,0-3.359c0.283-3.195-0.926-6.612,0.234-9.392 c2.523,0.207,5.065-0.092,6.378,1.502c-0.32,2.14-0.341,4.286-0.582,6.381c-0.167,1.474-0.378,2.537-0.231,4.06 c0.255,2.592-0.258,5.058-0.462,7.766c-0.046,0.614,0.133,1.235,0.112,1.856c-0.117,3.917-0.827,8.007-0.574,12.294 c-0.922,2.245,0.549,6.362-0.351,8.694c-1.515,0.406-3.408-0.238-4.982-0.231c-0.604-0.78-0.852-1.724-1.162-2.665 c-0.301-0.939-0.837-1.75-1.159-2.67c-0.306-0.864-0.327-1.838-0.582-2.672c-0.242-0.802-0.697-1.376-1.042-2.205 c-0.294-0.693-0.326-1.534-0.579-2.313c-0.824-2.527-2.086-5.198-2.786-7.536c-0.254-0.859,0.018-2.004-1.039-2.437 c-1.334,0.546-1.096,3.43-0.806,4.868c-1.227,1.167-0.557,2.966-0.586,5.105c-0.01,1.275-0.293,2.603-0.344,3.946 c-0.056,1.416,0.195,2.782,0.231,4.057c0.026,1.106-0.238,2.133,0.113,3.243c-1.905,0.457-5.279,0.047-6.95,0.349 c-0.821-1.634-0.269-4.163,0-5.679c-0.161-9.4,0.942-19.858,0.808-30.149c-0.03-1.97-0.627-3.839,0.113-5.796 C136.505,18.261,139.205,19.327,141.758,19.307z"></path> <path d="M92.365,19.128c0.296,2.209,0.172,4.938,0.922,6.955c0.399,1.065,1.29,1.807,1.625,2.663 c0.273,0.763-0.023,2.8,1.042,3.021c1.287,0.265,1.637-2.419,1.973-3.482c0.505-1.622,1.059-2.652,1.503-3.941 c0.473-1.368,1.104-5.413,2.208-5.915c0.542-0.25,1.281,0.076,1.969,0.117c1.485,0.092,3.616-0.045,5.454,0.582 c-1.123,1.742-2.073,3.644-3.133,5.449c0.156,2.196-1.209,3.806-1.854,5.567c-0.169,0.452-0.076,0.969-0.236,1.392 c-0.16,0.434-0.646,0.827-0.808,1.274c-0.267,0.737-0.108,1.581-0.347,2.317c-0.297,0.916-1.151,1.795-1.738,2.55 c-0.064,2.296-1.09,3.626-1.973,5.103c0.166,1.912-0.622,4.731,0.114,6.607c-1.133,3.275,0.139,7.494-0.578,11.364 c-1.939,0.228-4.655-0.212-6.725,0c-0.778-0.504-0.732-2.456-0.231-3.244c0.105-2.592-0.051-5.247,0.117-7.655 c0.113-1.693,0.524-3.296,0.46-4.869c-0.126-2.946-1.506-5.822-2.206-8.58c-0.262-1.058-0.834-1.982-1.157-3.017 c0.218-2.399-1.732-4.996-2.434-7.879c-0.158-0.654-0.061-1.315-0.235-1.86c-0.359-1.125-2.483-4.376-1.623-5.566 c0.923-0.531,2.996,0.139,4.64,0.234C90.498,18.395,91.881,18.192,92.365,19.128z"></path> </g> <g> <path d="M196.731,21.126c-0.095,0.986-0.557,2.184-0.414,3.296c-1.111,0.254-3.253-0.866-4.239,0.007 c-0.202,0.559-0.07,1.296-0.31,1.908c0.281,0.526,0.02,1.22-0.075,1.966c-0.146,1.183-0.221,2.542-0.372,3.709 c-0.061,0.464-0.239,0.909-0.288,1.378c-0.126,1.185-0.037,2.361-0.187,3.364c-0.071,0.47-0.343,0.922-0.401,1.371 c-0.049,0.38,0.11,0.769,0.071,1.171c-0.069,0.663-0.194,1.496-0.202,2.25c-1.417-0.005-2.806,0.043-3.992-0.385 c0.039-2.188,0.47-3.873,0.642-6.067c0.037-0.506,0.119-1.031,0.175-1.561c0.127-1.215,0.235-2.488,0.375-3.648 c0.16-1.4,0.424-2.207,0.607-3.635c0.079-0.684,0.354-1.615,0.248-2.076c-0.242-1.081-2.468-0.115-2.984-0.872 c-0.255-0.377,0.121-0.914,0.172-1.389c0.096-0.904-0.174-1.78,0.205-2.316c0.442-0.13,0.921,0.18,1.435,0.293 C189.969,20.489,193.971,20.317,196.731,21.126z"></path> <path d="M218.859,21.995c0.634,0.584,0.004,2.059,0.114,3.019c-1.524,0.484-3.263-0.076-4.818,0.051 c-0.701,0.726-0.157,2.092-0.291,3.062c-0.082,0.572-0.558,1.274,0.166,1.635c1.077,0.535,3.066-0.235,3.941,0.269 c0.109,0.697-0.058,1.695-0.044,2.49c0.013,0.431,0.155,0.87-0.092,1.102c-1.309,0.377-2.683-0.278-3.949-0.092 c-0.684,0.401-0.337,1.175-0.316,2.135c0.034,1.489-1.115,3.525,0.432,3.786c1.562,0.27,3.694-0.337,4.983,0.37 c0.075,0.849-0.291,2.255-0.012,3.252c-0.514,0.227-1.172,0.227-1.801,0.22c-1.692-0.015-3.581-0.397-5.046-0.371 c-0.843,0.017-1.691,0.106-2.605-0.155c-0.221-0.481,0.055-0.99,0.113-1.448c0.239-1.821,0.182-3.957,0.239-6.087 c0.012-0.631,0.178-1.276,0.244-1.905c0.145-1.334,0.06-2.93,0.171-4.353c0.109-1.511,0.12-2.852,0.294-4.687 c0.094-0.99-0.416-3.112,0.589-3.112c0.351,0,0.831,0.238,1.151,0.274c0.639,0.073,1.313-0.092,1.975-0.035 c0.444,0.031,0.882,0.227,1.325,0.278C216.735,21.829,217.801,21.891,218.859,21.995z"></path> <path d="M200.814,24.066c0.041,1.327-0.49,2.796-0.686,4.328c-0.076,0.582,0.012,1.167-0.067,1.677 c-0.06,0.394-0.419,0.722-0.446,1.092c-0.051,0.565,0.228,1.072,0.46,1.466c0.525,0.194,1.414,0.026,2.209,0.09 c0.632,0.04,1.206,0.341,1.467-0.351c0.144-0.415-0.051-1.065,0-1.51c0.023-0.263,0.16-0.529,0.202-0.806 c0.271-1.878-0.202-4.119,0.492-5.38c0.908,0.228,2.466,0.502,3.282,0.826c0.127,0.704-0.306,1.651-0.379,2.427 c-0.088,0.879,0.032,1.764-0.108,2.665c-0.125,0.815-0.157,1.912-0.228,2.891c-0.054,0.741-0.209,1.454-0.262,2.252 c-0.047,0.786-0.129,1.522-0.149,2.316c-0.006,0.413-0.173,0.756-0.218,1.156c-0.066,0.572,0.054,1.174-0.007,1.742 c-0.175,1.51-0.487,2.968-0.344,4.459c-0.475,0.367-1.287,0.098-2.1,0.092c-0.567,0-1.237,0.155-1.553-0.29 c0.273-2.737,0.607-5.584,0.96-8.387c-0.451-0.358-1.706-0.512-2.187-0.485c-1.51-0.855-1.587,0.707-1.766,2.078 c-0.214,1.751-0.423,4.602-0.355,6.256c-1.174,0.176-2.687,0.301-3.658-0.023c-0.234-0.503,0.163-0.923,0.228-1.388 c0.134-0.938,0.024-1.962,0.171-2.952c0.085-0.54,0.266-0.995,0.293-1.506c0.017-0.323-0.047-0.644-0.022-0.981 c0.032-0.363,0.233-0.718,0.278-1.095c0.039-0.373-0.046-0.787-0.014-1.16c0.058-0.834,0.252-1.669,0.33-2.541 c0.165-1.867,0.336-3.729,0.501-5.496c0.124-1.377-0.178-2.796,0.443-3.99C198.612,23.55,199.772,23.863,200.814,24.066z"></path> <g> <path d="M288.813,21.575c0.787,1.893,0.587,3.971,0.928,6.032c0.483,2.895,1.211,5.834,1.629,8.93 c0.133,1.025,0.058,2.041,0.228,3.015c0.188,1.081,0.706,2.011,0.809,3.246c0.055,0.663-0.069,1.369,0,1.973 c0.075,0.582,0.397,1.07,0.466,1.624c0.052,0.406-0.075,0.859,0,1.274c0.234,1.349,0.88,2.497,0.927,3.831 c0.042,1.183-0.343,2.331,0.468,3.126c-0.601,2.61,1.051,5.048,0.928,7.543c-0.848,0.336-1.808,0.127-2.788,0.114 c-0.911-0.01-1.915,0.369-2.548-0.114c-0.58-0.44-0.936-2.446-1.047-3.48c-0.183-1.783,0.224-3.755-0.927-4.757 c-2.258,0.291-5.848-1.207-7.536,0c-1.751,1.255-0.563,4.949-1.281,7.191c-1.772,0.023-3.709,0.41-5.799,0.234 c-2.111-1.44,0.01-3.562,0.466-5.45c0.183-0.773,0.069-1.602,0.234-2.439c0.174-0.896,0.772-1.796,0.93-2.663 c0.238-1.335,0.322-2.906,0.576-4.41c0.223-1.35,0.684-2.744,0.809-4.061c0.062-0.624-0.012-1.146,0.121-1.741 c0.15-0.698,0.631-1.273,0.807-1.971c0.32-1.218,0.42-2.772,0.583-4.174c0.309-2.709,1.106-5.602,1.505-8.35 c0.334-2.266-0.346-5.173,1.745-5.453c0.528-0.07,1.417,0.31,2.2,0.345C285.129,21.091,286.503,20.935,288.813,21.575z M284.294,33.313c0.156,1.446-0.9,2.549-1.276,3.714c-0.16,0.477-0.007,1.046-0.12,1.508c-0.098,0.413-0.47,0.781-0.58,1.155 c-0.546,1.979-0.937,3.99-1.155,6.266c0.925,1.642,4.409,0.76,5.914,0c0.089-2.706-1.157-5.623-1.512-8.462 c-0.186-1.533,0.198-3.199-0.694-4.412C284.579,33.066,284.391,33.142,284.294,33.313z"></path> <path d="M266.718,18.445c1.317,1.131,0.164,4.122,0.469,6.03c-3.024,1.073-6.525,0.09-9.626,0.468 c-1.341,1.505-0.154,4.195-0.344,6.141c-0.121,1.142-1.018,2.584,0.46,3.248c2.194,0.99,6.104-0.701,7.885,0.234 c0.285,1.395,0.02,3.383,0.122,4.983c0.047,0.857,0.371,1.712-0.122,2.203c-2.565,0.847-5.38-0.354-7.885,0.117 c-1.331,0.855-0.581,2.378-0.46,4.288c0.181,2.983-1.961,7.128,1.156,7.538c3.135,0.414,7.343-0.973,9.973,0.348 c0.215,1.684-0.418,4.526,0.228,6.499c-1.012,0.497-2.323,0.539-3.593,0.572c-3.371,0.102-7.164-0.521-10.089-0.347 c-1.678,0.103-3.373,0.337-5.212-0.115c-0.489-0.945,0.027-1.979,0.113-2.9c0.34-3.655,0.057-7.912,0-12.172 c-0.02-1.265,0.266-2.568,0.347-3.828c0.177-2.667-0.102-5.851,0-8.696c0.112-3.029,0.02-5.71,0.233-9.392 c0.111-1.979-1.073-6.182,0.924-6.263c0.707-0.026,1.684,0.419,2.322,0.468c1.276,0.091,2.617-0.291,3.941-0.234 c0.895,0.038,1.782,0.39,2.664,0.464C262.452,18.287,264.6,18.328,266.718,18.445z"></path> <path d="M330.015,18.231c0.181,2.639-0.761,5.623-1.039,8.697c-0.108,1.162,0.123,2.326,0,3.36 c-0.097,0.781-0.785,1.464-0.817,2.203c-0.049,1.142,0.54,2.118,1.045,2.896c1.062,0.345,2.825-0.052,4.41,0 c1.269,0.051,2.435,0.598,2.898-0.81c0.269-0.83-0.181-2.124-0.119-3.014c0.037-0.522,0.288-1.063,0.346-1.623 c0.409-3.767-0.72-8.215,0.583-10.784c1.821,0.391,4.957,0.812,6.609,1.395c0.303,1.399-0.49,3.319-0.583,4.868 c-0.097,1.765,0.215,3.524,0,5.33c-0.187,1.654-0.164,3.842-0.23,5.802c-0.049,1.484-0.309,2.92-0.349,4.52 c-0.04,1.575-0.147,3.049-0.113,4.64c0.014,0.81-0.291,1.521-0.346,2.322c-0.088,1.144,0.199,2.34,0.115,3.473 c-0.23,3.032-0.749,5.963-0.351,8.928c-0.908,0.779-2.554,0.292-4.169,0.352c-1.143,0.04-2.474,0.407-3.129-0.461 c0.32-5.49,0.769-11.201,1.27-16.818c-0.94-0.694-3.445-0.888-4.407-0.814c-3.085-1.582-3.123,1.548-3.363,4.295 c-0.3,3.519-0.5,9.227-0.227,12.525c-2.332,0.436-5.349,0.806-7.311,0.225c-0.511-0.97,0.255-1.846,0.35-2.78 c0.195-1.882-0.111-3.919,0.116-5.912c0.122-1.08,0.441-2.004,0.465-3.01c0.015-0.662-0.146-1.293-0.115-1.975 c0.032-0.724,0.406-1.45,0.464-2.203c0.055-0.751-0.14-1.567-0.114-2.319c0.05-1.665,0.373-3.36,0.46-5.098 c0.2-3.741,0.381-7.475,0.581-11.018c0.153-2.765-0.566-5.563,0.577-8C325.586,17.377,327.913,17.905,330.015,18.231z"></path> <path d="M311.737,29.494c-1.118-0.949-0.653-3.055-1.387-4.175c-1.769-2.67-7.15-1.452-7.664,1.858 c-0.108,0.727,0.208,1.549,0.241,2.084c0.075,1.575-0.041,3.235,0,4.988c0.011,0.905,0.258,1.916,0.226,2.901 c-0.158,5.5-1.439,11.411-0.467,14.03c0.689,1.815,4.597,2.007,6.27,0.807c1.57-1.127,1.191-3.271,2.197-5.219 c2.524-0.146,5.246,0.255,7.195,0.817c-0.552,3.184-1.689,6.157-3.479,8.345c-1.417,1.734-3.476,3.385-6.497,3.596 c-2.541,0.177-4.757-1.03-7.648-1.042c-2.518-1.915-3.702-3.759-4.41-7.54c-0.371-1.994-0.52-3.268-0.343-5.679 c0.049-0.684,0.329-1.443,0.343-2.09c0.019-0.681-0.258-1.495-0.226-2.202c0.106-2.756,0.068-5.99,0.226-9.044 c0.396-7.505,2.015-13.09,7.649-14.956c0.677-0.221,2.89-0.022,4.296,0.117c2.526,0.247,3.799,0.338,5.564,1.502 c0.78,0.524,1.614,0.883,2.087,1.627c0.256,0.406,0.391,1.195,0.697,1.742c0.33,0.575,0.809,0.99,0.925,1.269 c0.295,0.695,0.213,1.529,0.464,2.554c0.218,0.884,1.014,2.09,0.693,2.902C318.05,30.308,313.717,29.181,311.737,29.494z"></path> <path d="M223.056,20.313c1.275-0.189,2.481,0.203,3.744,0.235c2.82,0.073,5.706-0.304,8.422,0 c0.587,0.06,1.078,0.436,1.751,0.584c0.481,0.108,0.998-0.022,1.403,0.118c1.068,0.368,2.428,1.44,3.275,2.222 c0.551,0.501,0.961,1.08,1.523,1.52c0.496,3.335,1.652,7.631,0.817,11.111c-0.194,0.82-1.229,1.902-2.22,2.575 c-1.33,0.897-3.787,1.106-2.106,2.925c0.138,0.151,0.669,0.741,0.818,0.821c0.468,0.243,1.062,0,1.521,0.228 c0.79,0.404,2.095,2.114,2.339,2.921c0.108,0.362,0.03,0.771,0.119,1.293c0.063,0.413,0.412,0.81,0.463,1.17 c0.085,0.584-0.068,1.312,0,1.994c0.333,3.05-0.54,5.041-1.168,8.061c-3.164,6.217-12.942,5.009-20.001,5.5 c-1.034-1.328-0.316-3.667-0.348-5.851c-0.04-2.276-0.581-5.305-0.586-8.184c-0.031-8.529,0.252-17.021,0-25.38 c-0.038-1.164-0.582-2.602,0-3.507C222.921,20.569,222.894,20.345,223.056,20.313z M228.551,30.84 c0.072,0.784,0.633,1.542,0.703,2.341c0.075,0.844-0.338,1.677-0.231,2.455c0.331,2.415,3.006,2.349,5.377,1.635 c3.231-0.968,4.644-5.46,2.925-8.184c-1.283-2.036-4.677-2.225-7.483-1.992C229.171,28.195,228.401,29.178,228.551,30.84z M229.373,52.128c-0.146,0.849-0.502,1.507-0.469,2.224c0.117,2.533,1.809,2.923,4.444,2.572 c1.362-0.187,4.343-0.968,5.028-2.109c0.621-1.015,0.879-3.37,0.703-4.907c-0.202-1.778-1.289-3.285-2.337-3.979 c-1.351-0.889-2.413-1.038-4.214-1.284c-1.051-0.146-1.631-0.589-2.576-0.117c-0.281,0.218-0.208,0.804-0.581,0.929 C229.359,47.465,229.738,49.984,229.373,52.128z"></path> </g> </g> <g> <path style="fill:#40A18B;" d="M53.124,39.135c0.357,0.276,5.001,4.552,5.177,5.004c0.176,0.439-0.09,4.46-0.09,4.909 c0,0.446-0.353,4.108-0.353,4.108s-0.092,0.98-0.361,1.337c-0.266,0.357-0.803,0.538-0.803,0.538S42.32,62.884,35.803,66.189 c-4.839,2.452-12.93,5.643-16.772,7.124c-1.331,0.514-1.658,0.84-2.153,0.822c-0.494-0.02-1.038-0.442-2.491-1.115 c-2.282-1.057-5.609-2.674-7.602-4.011c-0.713-0.48-1.255-0.929-1.509-1.3c-0.228-0.326-0.43-1.182-0.611-2.397 c-0.95-6.445-1.267-23.047-1.267-24.476l-0.044-3.169c0-1.425,0.316-18.021,1.264-24.476c0.178-1.214,0.384-2.073,0.612-2.394 c0.257-0.372,0.799-0.821,1.517-1.302c1.988-1.337,5.312-2.955,7.599-4.008c1.456-0.673,1.996-1.097,2.488-1.122 c0.494-0.016,0.823,0.31,2.157,0.825c3.835,1.476,11.93,4.666,16.766,7.123c6.518,3.299,20.895,11.158,20.895,11.158 s0.531,0.183,0.803,0.537c0.265,0.358,0.357,1.337,0.357,1.337s0.357,3.661,0.357,4.107c0,0.449,0.264,4.463,0.089,4.912 c-0.176,0.449-4.824,4.733-5.178,5.001 M17.548,37.398c-0.269-3.75,1.429-15.531,1.518-15.889c0.09-0.359,1.518-0.806,1.786-1.073 c0.265-0.27,0.895,0.092,0.895,0.092s22.495,11.963,22.944,12.137c0.44,0.179,1.158,0.179,1.158,0.179s2.141-0.891,3.126-1.603 c0.981-0.715-9.198-5.804-13.838-8.215c-4.643-2.409-14.195-7.672-14.91-7.499c-0.711,0.184-2.59,1.61-3.215,1.967 c-0.622,0.354-2.589,1.783-2.944,2.052c-0.187,0.139-1.585,9.441-1.786,18.482l0.046,2.453c0.195,9.034,1.599,18.342,1.786,18.478 c0.355,0.27,2.321,1.698,2.945,2.054c0.622,0.354,2.501,1.786,3.21,1.964c0.717,0.176,10.272-5.087,14.914-7.5 c4.641-2.412,14.82-7.5,13.836-8.213c-0.984-0.718-3.126-1.608-3.126-1.608s-0.715,0-1.155,0.18 C44.285,46.013,21.789,57.98,21.789,57.98s-0.622,0.354-0.892,0.083c-0.268-0.269-1.698-0.715-1.784-1.07 c-0.091-0.357-1.786-12.141-1.52-15.89L17.548,37.398z M37.659,38.915c0,0-9.377-5.624-10.382-5.692 c-1.005-0.065-0.663,8.776-0.537,9.444c0.14,0.667,4.956-0.804,5.562-1.077C32.905,41.327,37.659,38.915,37.659,38.915z"></path> <path d="M17.088,0c0,0,17.308,8.789,23.982,13.591c0,0,11.445,6.856,13.379,8.154c1.933,1.298,2.356,1.117,2.356,0.453 s-0.014-2.793,0.394-2.385c0.408,0.408,0.634,1.238,0.634,2.869c0,0,0.03,0.574,0.574,0.574c0.543,0,0.301,0.845,0.301,1.238 c0,0.393,1.751,1.843,1.178,1.571c-0.574-0.272-1.692-1.028-1.812-0.574c-0.12,0.453-0.12,6.615,0.152,7.49 c0.272,0.876-0.287,1.435-0.287,1.435s0.439,1.496-0.227,1.194c-0.665-0.302,0.06-1.237-0.77-0.407 c-0.829,0.83-2.431,1.888-3.065,1.888c-0.634,0-0.997,0.453-0.816,0.634c0.181,0.181,5.074,5.226,5.829,5.558 c0,0-0.665,1.932-0.665,2.974s-0.385,1.019-0.385,2.107c0,1.087-1.065,9.446-1.563,8.948c-0.499-0.499-0.272-1.766-0.272-1.766 s0.612-4.938,0.612-6.342c0-1.405,0.77-5.55,0.339-5.98c-0.43-0.43-4.372-4.146-4.825-4.599s0.227-0.77-0.453-0.272 c-0.68,0.499-2.153,1.699-0.431-0.272c0,0,0.533-0.532,0.906-0.906c0.374-0.374,0.782-0.295,0.782-0.782s3.748-2.39,3.908-3.001 c0.158-0.612-0.023-3.715-0.023-6.275s0.204-2.673-1.019-3.376c-1.223-0.703-9.945-5.889-12.889-7.407S28.844,8.882,28.844,8.882 s7.746,3.715,5.142,2.152S21.21,4.352,21.21,4.352l5.572,3.624c0,0-8.358-4.825-8.245-4.418c0.113,0.407-1.88-0.317-1.654,0.135 c0.227,0.453-0.566-0.045-1.065,0.091c-0.499,0.136-11.53,5.074-11.53,5.777c0,0.703-1.019,4.961-1.381,10.623 C2.544,25.849,1.887,34.75,1.887,36.857s0.476,14.815,1.518,23.128c1.042,8.314,1.01,7.083,1.298,7.37s6.252,3.595,8.397,4.893 c2.145,1.298,3.051,1.993,4.138,1.298c1.088-0.694,22.591-11.357,30.475-15.948c7.883-4.59,8.306-4.167,8.306-4.167 s3.321-1.209-7.672,4.802s-5.647,3.746-0.483,1.057c5.165-2.687,8.577-5.617,7.46-3.292c0,0-30.657,18.001-36.546,18.696 c0,0-0.875-0.725-1.237-0.363c-0.362,0.363,1.812,1.691,1.541,1.963c-0.272,0.273-1.178,0.968-4.138-0.875 c-2.961-1.843-9.875-6.373-10.208-6.04c-0.333,0.333,0.03,3.11,0.03,3.11s-0.786,0.574-0.786-0.331 c0-0.907-0.634-3.988-1.751-4.712c-1.117-0.725-1.724-1.269-0.967-1.269c0.756,0,1.541,0.724,1.541,0.151 c0-0.574-1.056-3.715-1.298-9.333s-0.967-9.907-0.967-14.769s0.151-16.853,0.725-22.893s2.567-9.696,0.816-9.273 s-3.172,0.665-0.907-1.208c0,0,1.69-0.543,1.812-1.45c0.122-0.907,0.484-1.541,0.756-1.541s0.239-0.695,0.603-0.695 c0.364,0-0.119,2.235,0.364,2.235c0.482,0,4.742-2.779,9.936-4.924c0,0-0.816-0.515-1.088-0.786 c-0.272-0.271,0.453-0.573,1.45-0.271c0.997,0.301,1.602,0.875,1.223,0.075C15.847,0.694,16.092,0,17.088,0z"></path> <path d="M37.656,38.298c0,0,2.868-1.965-0.665-0.665c0,0-4.711-3.472-6.644-4.771c-1.932-1.298-3.474-3.232-4.682-2.265 c0,0,0.575-3.443-0.936-3.715c0,0,1.255,13.938-0.12,15.313c-1.375,1.375-2.419,1.963-1.299,1.782 c1.118-0.181,2.568-0.876,2.568-0.876s0.061,2.688,0.725,2.537v-2.9c0,0,2.656-1.541,6.04-2.205 c3.383-0.664,4.787-2.07,4.787-2.07s0.528,0.68,1.071,0.499C39.045,38.781,37.656,38.298,37.656,38.298z M31.796,39.596 c-1.783,0.907-3.441,1.751-5.013,1.45c0,0,0.046-8.32-0.543-8.909c0,0,8.032,5.618,9.543,5.768 C35.783,37.905,33.579,38.69,31.796,39.596z"></path> <path d="M50.317,46.89c-0.408-0.747-1.178,0.091-1.767,0.249c-0.589,0.159-2.56-1.404-2.56-1.812c0-0.407,2.469-1.699-0.645-1.053 c0,0-0.963-0.418-1.393,0.261c-0.431,0.68-8.948,3.261-12.867,6.365c0,0-0.113,0.454,1.019,0.227 c1.133-0.227-5.822,2.9-8.789,3.624c0,0-2.084,0.453,0.181,0.589c0,0-2.243,1.722-2.469,1.496c-0.227-0.227-2.673-2.13-2.673-2.13 s-0.974-5.323-1.292-10.805c-0.317-5.481,0.158-15.177,0.52-17.488c0.362-2.311,0.725-4.53,0.725-4.53s2.174-2.265,2.582-2.265 s1.019,0.612,1.019,0.612s-1.019,0.974,0.974,1.608s0.385-0.316,0.884-0.091c0.499,0.227,3.42,1.699,5.029,2.945 c1.608,1.246,8.381,5.981,9.106,5.981c0.725,0,3.228,1.755,4.054,2.582c0,0-2.311,2.084,0.566,0.566c0,0,1.653,0.192,1.653-0.612 s2.968-1.699,3.67-2.401c0.702-0.703,0.725-1.314-0.544-0.838c0,0-0.295-0.181-2.809-1.97c-2.514-1.789-8.087-6.411-9.99-7.135 c0,0-1.745-0.951-4.01-2.627c-2.265-1.676-8.506-5.244-8.834-5.573c-0.328-0.328,0.181,0.385-2.582,1.767 s-5.006,3.376-5.006,3.376s-0.974-1.608-1.133,0.725c0,0-5.481,3.398-5.007,3.873c0.476,0.476,2.174-0.476,2.922-0.793 c0.747-0.316,0.793,5.119,0.612,7.068c-0.181,1.948-0.612,10.103-0.612,12.277c0,2.174,0.181,12.708,0.566,14.384 c0,0-1.563-2.242-1.133-0.77c0.43,1.473,2.627,4.983,3.602,5.211c0.974,0.226-0.056-0.963,2.945,2.038 c0,0-0.521,0.657,0.884,1.473l0.612-0.204c0,0,2.831,2.945,2.061,1.744c-0.77-1.2-1.506-1.936-1.506-1.936 s10.114-4.837,14.804-7.079c4.689-2.243,13.886-7.113,14.157-7.272c0.272-0.158,1.065,0.204,1.269,0.408s0.702,0,0.135-0.907 C48.686,47.139,50.724,47.638,50.317,46.89z M45.447,48.611c0,0,0.996-2.265-4.847,1.314S24.698,59.349,22.115,60.3 c-2.582,0.952-3.353,0.952-3.353,0.952s-4.375-4.375-5.154-5.155c-0.78-0.78-0.554-12.151-0.554-15.73s0.453-10.194,0.453-13.637 s0.272-7.43,0.272-7.43s4.753-3.625,7.296-3.79c-0.438,0.032-1.523,0.057-0.862-0.604c0.815-0.816,0.815-0.543,0.815-0.543 s11.734,7.792,16.219,10.692s8.2,5.708,8.2,5.889l-2.401,1.677c0,0-5.119-4.078-7.249-5.301s-7.792-3.806-10.42-5.935 c-2.627-2.129-3.624-3.126-3.624-3.126s-0.589,0.543-1.269,0.272c-0.68-0.272-3.194-1.562-2.718-1.087s1.949,1.45,1.949,1.45 s-4.847,2.265-4.847,3.262c0,0.997,2.084-0.589,2.084-0.589s-1.541,5.3-0.499,7.838c0,0-0.951,6.071-0.951,7.521 c0,1.45-0.861,8.154,0.453,17.578c0,0-0.816-0.951-1.178,0l1.722,1.722c0,0,0,1.541,0.906,1.541c0.907,0,0.272-0.634,0.272-0.634 s3.103,2.515,3.851,1.767c0.747-0.747,0.068-1.427,0.068-1.427s15.471-7.272,15.471-7.543s6.388-3.942,7.203-3.715 s2.854,1.676,2.854,1.676L45.447,48.611z"></path> </g> </g> </svg> 