<?xml version="1.0" encoding="UTF-8"?> <svg xmlns="http://www.w3.org/2000/svg" width="369.658" height="103.471" viewBox="0 0 369.658 103.471"><g id="Group_389" data-name="Group 389" transform="translate(-666 -373.394)"><path id="Path_421" data-name="Path 421" d="M741.455,440.025c3.69-10.426,6.466-24.325,6.466-41.825a102.7,102.7,0,0,0-1.4-18.253,21,21,0,0,1-.373-2.986,3.148,3.148,0,0,1,1.978-2.743,8.617,8.617,0,0,1,3.831-.824c3.157,0,5.446.513,7.131,1.6a8.156,8.156,0,0,1,3.413,5.132,42.039,42.039,0,0,1,1.159,6.227,88.95,88.95,0,0,1,.475,10.044c0,22.914-4.728,42.067-11.829,55.9-8.037,15.656-19.175,24.569-30.074,24.569a13.881,13.881,0,0,1-9.69-3.814,12.88,12.88,0,0,1-3.551-9.471v-76.8c-7.6.95-14.444,3.763-19.278,8.48-4.538,4.428-7.325,10.575-7.325,18.492A23.439,23.439,0,0,0,684.95,424.5c2.038,3.951,4.564,6.221,5.614,6.221a4.43,4.43,0,0,0,1.2-.246,5.552,5.552,0,0,1,1.627-.31,2.482,2.482,0,0,1,1.948.883,3.041,3.041,0,0,1,.676,1.992,9.036,9.036,0,0,1-1.245,4.453,12.165,12.165,0,0,1-4.054,4.2,10.433,10.433,0,0,1-5.479,1.7,7.548,7.548,0,0,1-3.739-.961h0c-3.656-1.966-8.124-6.215-11.311-12.137A34.846,34.846,0,0,1,666,413.747c0-13.167,5.6-22.524,13.7-28.9,10.484-8.256,25.171-11.453,37.229-11.453a9.176,9.176,0,0,1,5.778,2.01,6.494,6.494,0,0,1,2.506,5.028v82.317c0,.476.041.675.1.726l0,0a1.81,1.81,0,0,0,.288.011c2.9,0,10.274-7.681,15.858-23.459Zm158.792-38.4a40.169,40.169,0,0,1-8.622,4.918,20.5,20.5,0,0,1-8.976,1.7c-3.329-.222-5.528-1.57-6.476-2.849a3.4,3.4,0,0,1-.431-.759,3.106,3.106,0,0,1,.13-2.564,7.692,7.692,0,0,1,2.481-2.733,27.834,27.834,0,0,1,6.071-3.2,69.838,69.838,0,0,1,14-3.89c4.181-.673,7.532-.627,8.385.525a1.3,1.3,0,0,1,.17.3v0c.362.9-.259,2.28-1.554,3.838a30.8,30.8,0,0,1-5.182,4.712ZM792.185,403.5a13.56,13.56,0,0,1-8.375,2.707,13.248,13.248,0,0,1-8.225-2.761,8.922,8.922,0,0,1-3.6-6.915,8.829,8.829,0,0,1,3.516-6.951,13.36,13.36,0,0,1,8.309-2.725,13.665,13.665,0,0,1,8.464,2.673l0,0a8.792,8.792,0,0,1,3.54,7,8.891,8.891,0,0,1-3.623,6.969ZM785.8,419.444a6.452,6.452,0,0,1,3.287,5.408v35.259a9.05,9.05,0,0,0,.486,3.217,2.9,2.9,0,0,0,2.906,1.961c3.041,0,5.292-1.981,6.967-4.64a34.8,34.8,0,0,0,3.722-9.438h0c.8-3.182,2.556-4.635,4.549-4.957a5.964,5.964,0,0,1,2.83.27,8.326,8.326,0,0,1,2.494,1.359c.157.123.311.254.459.388v-34.8a9.559,9.559,0,0,0-.432-2.953l0,0a5.152,5.152,0,0,1-.278-1.486,3.152,3.152,0,0,1,1.976-2.745,8.641,8.641,0,0,1,3.832-.823,13.885,13.885,0,0,1,7.47,1.9,6.45,6.45,0,0,1,3.291,5.411v49.418a4.107,4.107,0,0,0,.5,2.4c.34.441,1.014.691,2.188.691,5.435,0,9.436-3.549,12.212-8.811,3.6-6.814,5.158-16.44,5.158-25.186,0-10.469-4.489-13.2-6.608-14.481l-.06-.036v0a3.7,3.7,0,0,0-.852-.275c-1.158-.287-2.21-.549-2.21-2.006,0-1.646,1.248-3.817,2.991-5.452a8.513,8.513,0,0,1,5.47-2.559c4.049,0,8.471,3.4,11.767,8.42a31.579,31.579,0,0,1,5.189,16.8c0,10.883-2.49,23.928-9.683,33.189-5.517,7.1-13.755,11.968-25.674,11.968-5.544,0-9.414-1.432-12-3.767-3.056-2.765-4.248-6.717-4.248-11.043v-2.191a36.192,36.192,0,0,1-6.161,9.228,23.889,23.889,0,0,1-18.041,7.773,17,17,0,0,1-11.448-3.907,13.583,13.583,0,0,1-4.622-10.348V425.546a9.465,9.465,0,0,0-.429-2.961,5.06,5.06,0,0,1-.279-1.481,3.149,3.149,0,0,1,1.975-2.743,8.635,8.635,0,0,1,3.833-.824,13.9,13.9,0,0,1,7.475,1.9v0Zm121.145.808a14.37,14.37,0,0,1,4.753,11.124c0,5.767-2.676,12.1-7.883,17.368a38.819,38.819,0,0,1-17.66,9.923,13.516,13.516,0,0,0,4.463,4.259,19.681,19.681,0,0,0,10.14,2.363c5.775,0,10.027-1.647,13.134-4.165,3.929-3.182,6.1-7.8,7.246-12.265V394.174a19.791,19.791,0,0,1,4.913-13.439,16.614,16.614,0,0,1,12.4-5.536c8.392,0,12.656,3.967,14.822,8.989,2.086,4.84,2.133,10.578,2.133,14.568,0,7.761-2.27,16.569-5.236,24.649-4.578,12.473-10.954,23.349-13.165,25.94v7.572a8.728,8.728,0,0,0,2.1,6.258c1.3,1.331,3.3,2.114,6.07,2.114a12.513,12.513,0,0,0,8.5-3.792,22.654,22.654,0,0,0,4.527-6.131,34.654,34.654,0,0,1-.433-5.528,42.728,42.728,0,0,1,5.266-20.715c4.682-8.5,11.355-13.252,13.99-13.252a6.607,6.607,0,0,1,4.861,2.374,8.334,8.334,0,0,1,1.727,3.062,6.191,6.191,0,0,1,.107,3.452,4.874,4.874,0,0,1-2.386,2.989l-.455.526c-2.8,3.229-7.246,8.348-7.246,20.731,0,5.1,1.092,8.674,2.889,11.078l0,0a11.312,11.312,0,0,0,8.409,4.291c3.167.292,5.789-1.572,7.833-4.279a31.5,31.5,0,0,0,5.119-12.349c-.328.027-.665.048-1.009.06a15.932,15.932,0,0,1-8.759-1.933c-2.751-1.643-4.934-4.468-5.642-9.1a21.251,21.251,0,0,1-.218-2.387v-.009l-.011-.373V434c-.1-4.509,1.059-8.135,3.5-10.706s6.1-4.026,10.993-4.214h0l.418-.013h.014a11.04,11.04,0,0,1,3.841.855,12.936,12.936,0,0,1,3.438,2l0,0c.792.657,1.674,2.532,2.484,4.744v.005c.906,2.476,1.784,5.454,2.322,7.5,1.087-.392,2-.7,2.794-.968v0a16.2,16.2,0,0,0,5.863-2.9,10.685,10.685,0,0,0,3.6-4.643,25.808,25.808,0,0,0,1.381-7.688c.113-1.675,1.887-2.837,4.11-3.2h0a10.3,10.3,0,0,1,3.325,0,7.571,7.571,0,0,1,3.186,1.255v0c1.737,1.256,2.706,3.32,1.824,6.381h0a32.017,32.017,0,0,1-4.382,10.113c-2.146,3.053-5.283,5.917-10.411,9.061a46.341,46.341,0,0,1-5.275,2.824,31.652,31.652,0,0,1-6.295,2.107c-.292,4.388-1.061,11.514-4.066,17.757-3.309,6.875-9.266,12.644-20.1,12.6-8.731-.039-15.222-2.809-19.661-7.244q-.792-.795-1.5-1.656a33.427,33.427,0,0,1-3.4,3.018,27.418,27.418,0,0,1-17.014,5.886c-6.965,0-12.375-1.876-16.1-5.148a16.777,16.777,0,0,1-2.724-3.052q-.837.723-1.762,1.406c-5.378,3.958-13.031,6.794-23.819,6.794-8.74,0-17.245-2.9-23.36-8.269a26.484,26.484,0,0,1-9.167-20.423,33.642,33.642,0,0,1,8.248-22.279c5.339-6.076,12.655-9.747,20.033-9.747,5.2,0,9.423,1.5,12.378,4.105ZM883.192,446.88c0,.337.005.618.014.819.012.274.037.552.064.829a21.58,21.58,0,0,0,8.551-6.482,17.082,17.082,0,0,0,3.66-10.532,4.663,4.663,0,0,0-.739-2.832,2.125,2.125,0,0,0-1.77-.817v0l-.288.006c-3.406.16-5.751,3.315-7.253,7.138a35.35,35.35,0,0,0-2.239,11.874Zm54.47-59.3a8.957,8.957,0,0,0-.663,3.536v33.954a86.069,86.069,0,0,0,2.437-8.613c1.531-6.559,2.578-13.575,2.578-17.568a29.522,29.522,0,0,0-1.161-9.447c-.648-1.809-1.482-2.671-2.408-2.671-.284,0-.552.335-.778.809Zm55.708,43.538a5.61,5.61,0,0,0-.412,1.964,3.286,3.286,0,0,0,.421,2.042h0a4.451,4.451,0,0,0,1.684,1.569,6.246,6.246,0,0,0,2.33.743,4.343,4.343,0,0,0,1.518-.078,17.02,17.02,0,0,0-.733-4.8c-.377-1.2-.859-2.179-1.4-2.383l-.021-.007-.087-.044a2.159,2.159,0,0,0-2.1,0,3.591,3.591,0,0,0-1.2,1Z" fill="#5c5c5b"></path></g></svg> 