<?xml version="1.0" encoding="utf-8"?>
<!-- Generator: Adobe Illustrator 23.0.0, SVG Export Plug-In . SVG Version: 6.00 Build 0)  -->
<svg version="1.1" id="Layer_1" xmlns="http://www.w3.org/2000/svg" xmlns:xlink="http://www.w3.org/1999/xlink" x="0px" y="0px"
	 viewBox="0 0 185.4 186.1" style="enable-background:new 0 0 185.4 186.1;" xml:space="preserve">
<style type="text/css">
	.st0{fill:none;stroke:#FF7A59;stroke-width:2.279;stroke-linecap:round;stroke-miterlimit:10;}
	.st1{fill:#FF7A59;}
	.st2{fill:none;stroke:#FF7A59;stroke-width:2.279;stroke-linecap:round;stroke-linejoin:round;stroke-miterlimit:10;}
	.st3{fill:#FFFFFF;stroke:#FF7A59;stroke-width:2.279;stroke-linecap:round;stroke-linejoin:round;stroke-miterlimit:10;}
</style>
<g>
	<line class="st0" x1="49.5" y1="93.5" x2="63.8" y2="93.5"/>
	<line class="st0" x1="122" y1="93.5" x2="136.3" y2="93.5"/>
	<g>
		<g>
			<g>
				<path class="st1" d="M114.1,87.8l-3.3-0.6c-0.3-1.2-0.8-2.3-1.3-3.4l2-2.9c0.8-1.2,0.7-2.9-0.3-4l-3-3.1
					c-0.6-0.6-1.3-0.9-2.1-0.9c-0.6,0-1.2,0.2-1.7,0.6l-2.8,2.1c-1.1-0.6-2.2-1.1-3.4-1.4l-0.6-3.5c-0.2-1.5-1.5-2.6-2.9-2.6h-4.2
					c-1.4,0-2.7,1.1-2.9,2.6L87,74.3c-1.1,0.4-2.2,0.8-3.2,1.4l-2.7-2.1c-0.5-0.4-1.1-0.6-1.7-0.6c-0.8,0-1.5,0.3-2.1,0.9l-3,3.1
					c-1,1.1-1.2,2.7-0.3,4l2,2.9c-0.5,1.1-1,2.2-1.3,3.4l-3.3,0.6c-1.4,0.2-2.5,1.5-2.5,3v4.4c0,1.5,1,2.8,2.5,3l3.4,0.6
					c0.3,1.2,0.8,2.3,1.4,3.4l-2,2.8c-0.8,1.2-0.7,2.9,0.3,4l3,3.1c0.6,0.6,1.3,0.9,2.1,0.9c0.6,0,1.2-0.2,1.7-0.6l2.8-2.1
					c1,0.6,2.1,1,3.1,1.4l0.6,3.5c0.2,1.5,1.5,2.6,2.9,2.6h4.2c1.4,0,2.7-1.1,2.9-2.6l0.6-3.5c1.1-0.4,2.2-0.8,3.2-1.4l2.8,2.1
					c0.5,0.4,1.1,0.6,1.7,0.6l0,0c0.8,0,1.5-0.3,2.1-0.9l3-3.1c1-1.1,1.2-2.7,0.3-4l-2-2.9c0.5-1.1,1-2.2,1.3-3.4l3.3-0.6
					c1.4-0.2,2.5-1.5,2.5-3v-4.4C116.5,89.4,115.5,88.1,114.1,87.8z M113.9,95.2c0,0.1-0.1,0.2-0.2,0.3l-4.2,0.7
					c-0.5,0.1-0.9,0.5-1.1,1c-0.4,1.5-1,3-1.7,4.4c-0.3,0.5-0.2,1.1,0.1,1.5l2.5,3.6c0.1,0.1,0.1,0.3,0,0.4l-3,3.1
					c-0.1,0.1-0.1,0.1-0.2,0.1c-0.1,0-0.1,0-0.1-0.1l-3.5-2.6c-0.4-0.3-1-0.3-1.5-0.1c-1.3,0.8-2.7,1.4-4.2,1.8
					c-0.5,0.1-0.9,0.6-1,1.1l-0.7,4.4c0,0.1-0.1,0.2-0.3,0.2h-4.2c-0.1,0-0.2-0.1-0.3-0.2l-0.7-4.4c-0.1-0.6-0.5-1-1-1.1
					c-1.4-0.4-2.8-1-4.1-1.7c-0.2-0.1-0.4-0.2-0.7-0.2c-0.3,0-0.5,0.1-0.8,0.3l-3.5,2.6c0,0-0.1,0.1-0.1,0.1c0,0-0.1,0-0.2-0.1
					l-3-3.1c-0.1-0.1-0.1-0.2,0-0.4l2.4-3.6c0.3-0.5,0.3-1.1,0.1-1.5c-0.8-1.4-1.4-2.8-1.8-4.3c-0.1-0.5-0.6-0.9-1.1-1l-4.2-0.7
					c-0.1,0-0.2-0.1-0.2-0.3V91c0-0.1,0.1-0.2,0.2-0.3l4.2-0.7c0.5-0.1,1-0.5,1.1-1c0.4-1.5,0.9-3,1.7-4.4c0.3-0.5,0.2-1.1-0.1-1.5
					l-2.5-3.6c-0.1-0.1-0.1-0.3,0-0.4l3-3.1c0.1-0.1,0.1-0.1,0.2-0.1c0.1,0,0.1,0,0.1,0.1l3.4,2.6c0.4,0.3,1,0.3,1.5,0.1
					c1.3-0.8,2.7-1.4,4.2-1.8c0.5-0.1,0.9-0.6,1-1.1l0.7-4.4c0-0.1,0.1-0.2,0.3-0.2h4.2c0.1,0,0.2,0.1,0.3,0.2l0.7,4.3
					c0.1,0.6,0.5,1,1,1.1c1.5,0.4,2.9,1,4.3,1.8c0.5,0.3,1,0.3,1.5-0.1l3.4-2.6c0,0,0.1-0.1,0.1-0.1c0,0,0.1,0,0.2,0.1l3,3.1
					c0.1,0.1,0.1,0.2,0,0.4l-2.5,3.6c-0.3,0.4-0.3,1.1-0.1,1.5c0.8,1.4,1.4,2.8,1.7,4.4c0.1,0.5,0.6,0.9,1.1,1l4.2,0.7
					c0.1,0,0.2,0.1,0.2,0.3L113.9,95.2L113.9,95.2z"/>
				<path class="st1" d="M92.7,82.3c-5.7,0-10.3,4.8-10.3,10.7s4.6,10.7,10.3,10.7S103,99,103,93.1S98.4,82.3,92.7,82.3z M92.7,101
					c-4.2,0-7.6-3.6-7.6-7.9s3.4-7.9,7.6-7.9c4.2,0,7.6,3.6,7.6,7.9S96.9,101,92.7,101z"/>
			</g>
		</g>
	</g>
	<line class="st0" x1="71" y1="130.2" x2="78.3" y2="119"/>
	<line class="st0" x1="114.2" y1="130.9" x2="109.3" y2="118.3"/>
	<line class="st0" x1="114.2" y1="55.2" x2="108.2" y2="65.7"/>
	<line class="st0" x1="71" y1="56.1" x2="78.8" y2="65.7"/>
	<g>
		<polygon class="st2" points="114.3,56.1 71,56.1 49.4,93.6 71,131.1 114.3,131.1 135.9,93.6 		"/>
		<circle class="st3" cx="70.9" cy="55.2" r="5.4"/>
		<circle class="st3" cx="114.2" cy="55.2" r="5.4"/>
		<circle class="st3" cx="135.9" cy="92.6" r="5.4"/>
		<circle class="st3" cx="114.2" cy="130.9" r="5.4"/>
		<circle class="st3" cx="70.9" cy="130.9" r="5.4"/>
		<circle class="st3" cx="49.5" cy="93.5" r="5.4"/>
	</g>
</g>
</svg>
