<?xml version="1.0" encoding="utf-8"?>
<!-- Generator: Adobe Illustrator 23.0.0, SVG Export Plug-In . SVG Version: 6.00 Build 0)  -->
<svg version="1.1" id="Layer_1" xmlns="http://www.w3.org/2000/svg" xmlns:xlink="http://www.w3.org/1999/xlink" x="0px" y="0px"
	 viewBox="0 0 400 70" style="enable-background:new 0 0 400 70;" xml:space="preserve">
<style type="text/css">
	.st0{fill:#6044DE;}
</style>
<g>
	<g>
		<g>
			<path class="st0" d="M85.3,36.8c0-2.5,0.4-4.9,1.3-7.3c0.9-2.4,2.2-4.6,3.9-6.4c1.7-1.9,3.8-3.4,6.2-4.6c2.5-1.2,5.3-1.8,8.4-1.8
				c3.7,0,6.9,0.8,9.6,2.4c2.7,1.6,4.7,3.8,6.1,6.4l-6,4.1c-0.5-1.1-1.2-2.1-1.9-2.9c-0.8-0.8-1.6-1.4-2.4-1.8
				c-0.9-0.5-1.8-0.8-2.7-1c-0.9-0.2-1.9-0.3-2.8-0.3c-2,0-3.7,0.4-5.1,1.2c-1.5,0.8-2.7,1.8-3.6,3.1c-1,1.3-1.7,2.7-2.2,4.3
				c-0.5,1.6-0.7,3.2-0.7,4.8c0,1.8,0.3,3.5,0.9,5.1c0.6,1.6,1.4,3.1,2.4,4.3c1,1.3,2.3,2.3,3.8,3c1.5,0.8,3.1,1.1,4.8,1.1
				c0.9,0,1.9-0.1,2.8-0.3c1-0.2,1.9-0.6,2.8-1.1c0.9-0.5,1.7-1.1,2.5-1.9c0.8-0.8,1.4-1.7,1.8-2.8l6.4,3.7c-0.6,1.5-1.6,2.9-2.8,4
				c-1.2,1.2-2.5,2.1-4,2.9c-1.5,0.8-3.1,1.4-4.8,1.8c-1.7,0.4-3.4,0.6-5,0.6c-2.9,0-5.5-0.6-7.9-1.8S92.5,53,90.8,51
				c-1.7-2-3.1-4.2-4-6.6C85.8,41.9,85.3,39.4,85.3,36.8z"/>
			<path class="st0" d="M139.7,57.8c-2.4,0-4.6-0.4-6.5-1.3c-1.9-0.8-3.6-2-4.9-3.4c-1.3-1.4-2.4-3.1-3.1-4.9
				c-0.7-1.9-1.1-3.8-1.1-5.9c0-2.1,0.4-4.1,1.1-5.9c0.7-1.9,1.8-3.5,3.1-4.9c1.3-1.4,3-2.5,4.9-3.4c1.9-0.8,4.1-1.2,6.5-1.2
				c2.4,0,4.6,0.4,6.5,1.2c1.9,0.8,3.5,2,4.9,3.4c1.3,1.4,2.4,3.1,3.1,4.9c0.7,1.9,1.1,3.8,1.1,5.9c0,2-0.4,4-1.1,5.9
				c-0.7,1.9-1.7,3.5-3.1,4.9c-1.3,1.4-3,2.5-4.9,3.4C144.3,57.4,142.1,57.8,139.7,57.8z M131.9,42.4c0,1.3,0.2,2.5,0.6,3.6
				c0.4,1.1,0.9,2,1.6,2.8c0.7,0.8,1.5,1.4,2.5,1.8c0.9,0.4,2,0.7,3.1,0.7c1.1,0,2.1-0.2,3.1-0.7c0.9-0.4,1.8-1.1,2.5-1.8
				c0.7-0.8,1.3-1.7,1.6-2.8c0.4-1.1,0.6-2.3,0.6-3.6c0-1.3-0.2-2.5-0.6-3.6c-0.4-1.1-0.9-2-1.6-2.8c-0.7-0.8-1.5-1.4-2.5-1.8
				c-0.9-0.4-2-0.7-3.1-0.7c-1.1,0-2.1,0.2-3.1,0.7c-0.9,0.5-1.8,1.1-2.5,1.9c-0.7,0.8-1.3,1.7-1.6,2.8
				C132.1,39.9,131.9,41.1,131.9,42.4z"/>
			<path class="st0" d="M188.1,57.2h-7.6V40.5c0-2.4-0.4-4.1-1.3-5.2s-2-1.6-3.5-1.6c-0.8,0-1.5,0.2-2.3,0.5
				c-0.8,0.3-1.5,0.7-2.2,1.3c-0.7,0.5-1.3,1.2-1.9,2c-0.6,0.8-1,1.6-1.3,2.5v17.4h-7.6V27.5h6.9V33c1.1-1.9,2.7-3.4,4.8-4.4
				c2.1-1.1,4.4-1.6,7-1.6c1.9,0,3.4,0.3,4.5,1c1.2,0.7,2.1,1.6,2.7,2.7c0.6,1.1,1.1,2.3,1.3,3.8c0.2,1.4,0.4,2.8,0.4,4.3
				L188.1,57.2L188.1,57.2z"/>
			<path class="st0" d="M202,57.2l-11-29.8h7.8l7.6,23.6l7.6-23.6h7.2l-11,29.8H202z"/>
			<path class="st0" d="M238,57.8c-2.4,0-4.5-0.4-6.5-1.2c-1.9-0.8-3.6-1.9-4.9-3.3c-1.4-1.4-2.4-3-3.2-4.9
				c-0.7-1.9-1.1-3.8-1.1-5.9c0-2.1,0.4-4.1,1.1-6c0.7-1.9,1.8-3.5,3.1-4.9c1.4-1.4,3-2.5,5-3.4c2-0.8,4.1-1.2,6.6-1.2
				c2.4,0,4.6,0.4,6.5,1.2c1.9,0.8,3.5,2,4.9,3.4c1.3,1.4,2.4,3,3.1,4.9c0.7,1.9,1.1,3.8,1.1,5.8c0,0.5,0,1,0,1.4
				c0,0.5-0.1,0.8-0.1,1.1h-23c0.1,1.2,0.4,2.2,0.9,3.1c0.5,0.9,1,1.7,1.8,2.3c0.7,0.6,1.5,1.1,2.4,1.5c0.9,0.3,1.9,0.5,2.8,0.5
				c1.5,0,2.9-0.4,4.3-1.1c1.3-0.7,2.3-1.7,2.8-2.9l6.5,1.8c-1.1,2.3-2.9,4.1-5.3,5.6C244.2,57.1,241.3,57.8,238,57.8z M245.7,39.9
				c-0.2-2.2-1-4-2.5-5.4c-1.5-1.3-3.2-2-5.3-2c-1,0-2,0.2-2.9,0.5c-0.9,0.4-1.7,0.9-2.4,1.5c-0.7,0.6-1.2,1.4-1.7,2.3
				c-0.4,0.9-0.7,1.9-0.8,3L245.7,39.9L245.7,39.9z"/>
			<path class="st0" d="M276,34.1c-2.3,0-4.4,0.5-6.2,1.3c-1.8,0.9-3.1,2.1-3.9,3.8v18h-7.6V27.5h7v6.4c0.5-1,1.2-1.9,1.9-2.8
				s1.5-1.5,2.3-2.1c0.8-0.6,1.7-1.1,2.5-1.4c0.9-0.3,1.7-0.5,2.5-0.5c0.4,0,0.7,0,0.9,0c0.2,0,0.4,0,0.6,0.1L276,34.1L276,34.1z"/>
			<path class="st0" d="M298.1,55.7c-1,0.5-2.3,0.9-3.7,1.4c-1.5,0.5-3,0.7-4.7,0.7c-1.1,0-2.1-0.1-3-0.4c-0.9-0.3-1.7-0.7-2.4-1.3
				c-0.7-0.6-1.3-1.3-1.7-2.3c-0.4-0.9-0.6-2.1-0.6-3.4V33.3H278v-5.9h3.9v-9.7h7.6v9.7h6.3v5.9h-6.3v14.5c0,1.1,0.3,1.8,0.8,2.2
				c0.5,0.4,1.2,0.7,2,0.7c0.8,0,1.6-0.1,2.3-0.4c0.8-0.3,1.4-0.5,1.8-0.7L298.1,55.7z"/>
			<path class="st0" d="M315.5,57.2V16.9h17.1c1.9,0,3.6,0.4,5.1,1.2c1.6,0.8,2.9,1.8,4.1,3.1c1.1,1.3,2,2.7,2.7,4.3
				c0.6,1.6,1,3.2,1,4.9c0,1.7-0.3,3.4-0.9,5c-0.6,1.6-1.5,3-2.6,4.3c-1.1,1.3-2.4,2.3-4,3c-1.6,0.8-3.3,1.1-5.1,1.1h-9.5v13.5
				L315.5,57.2L315.5,57.2z M323.4,36.8h9.1c1.4,0,2.6-0.6,3.6-1.8c1-1.2,1.4-2.8,1.4-4.8c0-1-0.2-1.9-0.5-2.8
				c-0.3-0.8-0.7-1.5-1.2-2.1c-0.5-0.6-1.1-1-1.7-1.3s-1.3-0.4-2-0.4h-8.7V36.8z"/>
			<path class="st0" d="M367.9,34.1c-2.3,0-4.4,0.5-6.2,1.3c-1.8,0.9-3.1,2.1-3.9,3.8v18h-7.6V27.5h7v6.4c0.5-1,1.2-1.9,1.9-2.8
				s1.5-1.5,2.3-2.1c0.8-0.6,1.7-1.1,2.5-1.4c0.9-0.3,1.7-0.5,2.5-0.5c0.4,0,0.7,0,0.9,0s0.4,0,0.6,0.1L367.9,34.1L367.9,34.1z"/>
			<path class="st0" d="M384.4,57.8c-2.4,0-4.6-0.4-6.5-1.3c-1.9-0.8-3.6-2-4.9-3.4c-1.3-1.4-2.4-3.1-3.1-4.9
				c-0.7-1.9-1.1-3.8-1.1-5.9c0-2.1,0.4-4.1,1.1-5.9c0.7-1.9,1.8-3.5,3.1-4.9c1.3-1.4,3-2.5,4.9-3.4c1.9-0.8,4.1-1.2,6.5-1.2
				c2.4,0,4.6,0.4,6.5,1.2c1.9,0.8,3.5,2,4.9,3.4c1.3,1.4,2.4,3.1,3.1,4.9c0.7,1.9,1.1,3.8,1.1,5.9c0,2-0.4,4-1.1,5.9
				c-0.7,1.9-1.7,3.5-3.1,4.9c-1.3,1.4-3,2.5-4.9,3.4C389,57.4,386.9,57.8,384.4,57.8z M376.6,42.4c0,1.3,0.2,2.5,0.6,3.6
				c0.4,1.1,0.9,2,1.6,2.8c0.7,0.8,1.5,1.4,2.5,1.8c0.9,0.4,2,0.7,3.1,0.7s2.1-0.2,3.1-0.7c0.9-0.4,1.8-1.1,2.5-1.8
				c0.7-0.8,1.3-1.7,1.6-2.8c0.4-1.1,0.6-2.3,0.6-3.6c0-1.3-0.2-2.5-0.6-3.6c-0.4-1.1-0.9-2-1.6-2.8c-0.7-0.8-1.5-1.4-2.5-1.8
				c-0.9-0.4-2-0.7-3.1-0.7c-1.1,0-2.1,0.2-3.1,0.7c-0.9,0.5-1.8,1.1-2.5,1.9c-0.7,0.8-1.2,1.7-1.6,2.8
				C376.8,39.9,376.6,41.1,376.6,42.4z"/>
		</g>
	</g>
	<g>
		<path class="st0" d="M41.9,14.3c-3.4,4.3-6,9.1-8.6,13.9c-1.1,2.1-2.2,4.2-3.2,6.4c0.7-1.6,1.9-3.1,2.9-4.4
			c3.2-4.5,6.6-8.8,10-13.1c4-5,10.2-12.9,9.4-12.4C48.3,7.5,44.9,10.4,41.9,14.3z"/>
		<path class="st0" d="M34.7,18.6c-0.7,1.1-1.8,3.7-3,6.7L25.4,26l-11,16.1l9.5-6.7l1.8,1.1c-2.2,3.1-2.2,5.1-2.2,5.1l6.3,4.5
			c0,0,2.4-0.9,4.6-3.6l1.8,1.3L33.4,55l11-16.1l-1.7-6c2.6-2.4,4.8-4.5,5.8-5.7c3.2-4,4.1-8.8,6.8-15.9c0,0,0,0,0,0
			c1-3.3,1.4-6.8,0.8-10c-3.2,0.6-6.2,2.3-9,4.4c0,0,0,0,0,0C41.4,10.6,36.8,15.3,34.7,18.6z M43,17.1c-3.4,4.3-6.8,8.6-10,13.1
			c-1,1.4-2.2,2.9-2.9,4.4c0.9-2.2,2-4.3,3.2-6.4c2.5-4.8,5.2-9.6,8.6-13.9c3.1-3.9,6.4-6.9,10.6-9.7C53.2,4.2,47,12.1,43,17.1z"/>
		<path class="st0" d="M23.3,42.1c0,0-13.6,24.4-13.7,24.7c-0.2,0.4,0.4,0.8,0.8,0.5c0.3-0.3,18.5-20.2,19.1-20.8L23.3,42.1z
			 M13.2,62.3c0-0.1,0.1-0.1,0.1-0.2c0,0,0,0,0,0C13.3,62.2,13.3,62.3,13.2,62.3z"/>
		<path class="st0" d="M12.5,55.1c-4.8-5.1-7.8-12-7.8-19.5c0-15.7,12.8-28.4,28.5-28.4c3.1,0,4.5,0,7.3,1c1.2-1.2,2.5-2.5,3.9-3.7
			c-3.9-1.6-6.7-1.9-11.2-1.9C14.8,2.4,0,17.2,0,35.6C0,44.7,3.7,53,9.8,59c0,0,0,0,0.1,0l2.7-3.9C12.5,55.1,12.5,55.1,12.5,55.1z"
			/>
		<path class="st0" d="M57.4,13c-0.7,1.8-1.4,3.4-1.9,4.9c4.4,5,6.1,10.5,6.1,17.7C61.6,51.3,48.9,64,33.2,64c-5.4,0-8.7-0.4-13-3
			c-1.2,1.3-2.3,2.2-3.3,3.2c5.2,3.3,9.7,4.5,16.3,4.5c18.3,0,33.2-14.9,33.2-33.2C66.3,26.2,63.6,19,57.4,13z"/>
		<path class="st0" d="M13.2,62.3c0,0,0.1-0.1,0.1-0.1c0,0,0,0,0,0C13.3,62.2,13.3,62.3,13.2,62.3z"/>
	</g>
</g>
</svg>
