<svg xmlns="http://www.w3.org/2000/svg" width="98.312" height="19.76" viewBox="0 0 98.312 19.76">
  <g id="Group_3977" data-name="Group 3977" transform="translate(-56.404 3624.48)">
    <path id="Path_3330" data-name="Path 3330" d="M-43.452,5.28a7.3,7.3,0,0,1-3.456-.708,4.711,4.711,0,0,1-1.872-1.62,3.169,3.169,0,0,1-.552-1.56.517.517,0,0,1,.168-.4A.578.578,0,0,1-48.756.84h2.136a.637.637,0,0,1,.372.108.755.755,0,0,1,.252.4A2.808,2.808,0,0,0-45.2,2.412a2.5,2.5,0,0,0,1.632.444A2.99,2.99,0,0,0-41.46,2.22,2.982,2.982,0,0,0-40.788,0V-1.632A4.539,4.539,0,0,1-44.46-.1a4.61,4.61,0,0,1-3.756-1.512,6.651,6.651,0,0,1-1.356-4.128l-.024-.648.024-.648A6.748,6.748,0,0,1-48.2-11.16a4.548,4.548,0,0,1,3.744-1.56,4.93,4.93,0,0,1,2.232.48,4.488,4.488,0,0,1,1.584,1.3v-.936a.564.564,0,0,1,.18-.432.6.6,0,0,1,.42-.168h1.968a.555.555,0,0,1,.408.168.585.585,0,0,1,.168.432l.024,11.568a5.53,5.53,0,0,1-1.488,4.128A6.161,6.161,0,0,1-43.452,5.28Zm-.1-7.92A2.4,2.4,0,0,0-41.532-3.5a3.7,3.7,0,0,0,.744-2.112q.024-.192.024-.768t-.024-.768a3.7,3.7,0,0,0-.744-2.112,2.4,2.4,0,0,0-2.016-.864q-2.592,0-2.736,3.168l-.024.576Q-46.308-2.64-43.548-2.64ZM-33.252,0a.555.555,0,0,1-.408-.168.555.555,0,0,1-.168-.408v-11.3a.585.585,0,0,1,.168-.432.555.555,0,0,1,.408-.168h1.968a.585.585,0,0,1,.432.168.585.585,0,0,1,.168.432v.984a4.074,4.074,0,0,1,3.456-1.584h1.008a.568.568,0,0,1,.42.156.568.568,0,0,1,.156.42v1.752a.578.578,0,0,1-.156.408.545.545,0,0,1-.42.168h-1.9a2.4,2.4,0,0,0-1.776.648,2.4,2.4,0,0,0-.648,1.776V-.576a.555.555,0,0,1-.168.408A.555.555,0,0,1-31.116,0Zm15.336.24A6.146,6.146,0,0,1-22.284-1.2,5.577,5.577,0,0,1-23.94-5.184l-.024-1.056L-23.94-7.3a5.544,5.544,0,0,1,1.68-3.972,6.131,6.131,0,0,1,4.344-1.452,6.1,6.1,0,0,1,4.32,1.452A5.544,5.544,0,0,1-11.916-7.3q.024.288.024,1.056t-.024,1.056A5.577,5.577,0,0,1-13.572-1.2,6.11,6.11,0,0,1-17.916.24Zm0-2.424a2.444,2.444,0,0,0,1.956-.792A3.654,3.654,0,0,0-15.228-5.3q.024-.24.024-.936t-.024-.936a3.661,3.661,0,0,0-.744-2.34,2.434,2.434,0,0,0-1.944-.8,2.463,2.463,0,0,0-1.968.8,3.661,3.661,0,0,0-.744,2.34l-.024.936.024.936a3.609,3.609,0,0,0,.744,2.328A2.481,2.481,0,0,0-17.916-2.184ZM13.292.24a5.1,5.1,0,0,1-2.244-.492A4.076,4.076,0,0,1,9.44-1.584a3.153,3.153,0,0,1-.588-1.848,3.167,3.167,0,0,1,1.32-2.64A7.925,7.925,0,0,1,13.8-7.44l3.288-.48v-.5a2.116,2.116,0,0,0-.528-1.56,2.3,2.3,0,0,0-1.68-.528,2.455,2.455,0,0,0-1.272.288,4.04,4.04,0,0,0-.78.588l-.4.4a.363.363,0,0,1-.36.288H10.2A.53.53,0,0,1,9.824-9.1a.5.5,0,0,1-.156-.384,2.539,2.539,0,0,1,.588-1.356A4.6,4.6,0,0,1,12-12.156a6.688,6.688,0,0,1,2.9-.564,5.719,5.719,0,0,1,4.128,1.272,4.466,4.466,0,0,1,1.3,3.336V-.576a.578.578,0,0,1-.156.408.545.545,0,0,1-.42.168H17.756a.555.555,0,0,1-.408-.168.555.555,0,0,1-.168-.408v-.936a3.936,3.936,0,0,1-1.488,1.26A5.232,5.232,0,0,1,13.292.24Zm.816-2.3a2.881,2.881,0,0,0,2.16-.864,3.438,3.438,0,0,0,.84-2.5V-5.9l-2.4.384q-2.76.432-2.76,1.848a1.343,1.343,0,0,0,.636,1.188A2.7,2.7,0,0,0,14.108-2.064ZM27.98,0a.856.856,0,0,1-.552-.156A1.105,1.105,0,0,1,27.116-.6L22.6-11.736a.728.728,0,0,1-.024-.216.508.508,0,0,1,.156-.372.482.482,0,0,1,.348-.156h1.992a.637.637,0,0,1,.648.456l3.168,8.376,3.168-8.376a.682.682,0,0,1,.2-.312.6.6,0,0,1,.42-.144h1.992a.47.47,0,0,1,.36.156.53.53,0,0,1,.144.372.728.728,0,0,1-.024.216L30.668-.6A.893.893,0,0,1,29.8,0ZM42.788.24A5.833,5.833,0,0,1,38.528-1.3,6.137,6.137,0,0,1,36.86-5.664l-.024-.6a6.763,6.763,0,0,1,1.572-4.728,5.591,5.591,0,0,1,4.356-1.728,5.606,5.606,0,0,1,4.4,1.728,6.648,6.648,0,0,1,1.548,4.608v.5a.555.555,0,0,1-.168.408.585.585,0,0,1-.432.168H40.148v.192a3.724,3.724,0,0,0,.732,2.22,2.258,2.258,0,0,0,1.884.876A2.707,2.707,0,0,0,45-3.12a1.3,1.3,0,0,1,.336-.324.989.989,0,0,1,.408-.06h2.112a.592.592,0,0,1,.372.12.4.4,0,0,1,.156.336A2.233,2.233,0,0,1,47.7-1.692,5.665,5.665,0,0,1,45.74-.336,7.094,7.094,0,0,1,42.788.24ZM45.4-7.344v-.048A3.435,3.435,0,0,0,44.7-9.66a2.378,2.378,0,0,0-1.932-.852,2.344,2.344,0,0,0-1.92.852,3.475,3.475,0,0,0-.7,2.268v.048Z" transform="translate(106 -3610)" fill="#013a52"/>
    <path id="Path_3331" data-name="Path 3331" d="M-5.7,0a.772.772,0,0,1-.792-.6L-9.011-6.738a.728.728,0,0,1-.024-.216.53.53,0,0,1,.144-.372.47.47,0,0,1,.36-.156h1.824a.653.653,0,0,1,.42.144.63.63,0,0,1,.228.312l1.415,2.9,2.457-6.023a.836.836,0,0,1,.252-.372.689.689,0,0,1,.468-.156H-.243a.689.689,0,0,1,.468.156.679.679,0,0,1,.228.372L2.964-4.128l3.328-9.9a.653.653,0,0,1,.216-.312.64.64,0,0,1,.432-.144h1.8a.508.508,0,0,1,.372.156.508.508,0,0,1,.156.372l-.048.216L4.788-.6a.983.983,0,0,1-.276.444A.726.726,0,0,1,4.02,0H2.436a.749.749,0,0,1-.792-.6L-.843-6.335-3.324-.6A.786.786,0,0,1-4.14,0Z" transform="translate(105 -3610)" fill="#11abec"/>
  </g>
</svg>
