<?xml version="1.0" encoding="utf-8"?>
<!-- Generator: Adobe Illustrator 23.0.5, SVG Export Plug-In . SVG Version: 6.00 Build 0)  -->
<svg version="1.1" id="Layer_1" xmlns="http://www.w3.org/2000/svg" xmlns:xlink="http://www.w3.org/1999/xlink" x="0px" y="0px"
	 viewBox="0 0 170 40" style="enable-background:new 0 0 170 40;" xml:space="preserve">
<style type="text/css">
	.st0{fill-rule:evenodd;clip-rule:evenodd;fill:#4949D7;}
	.st1{fill:#4949D7;}
</style>
<g>
	<path id="path4" class="st0" d="M17.1,15.1c3.2-0.4,6,2,5.7,5.5c-0.2,2.5-2.2,4.2-4.4,4.4c-3,0.3-5.9-1.9-5.6-5.5
		C13,17.1,14.8,15.3,17.1,15.1z"/>
	<path id="XMLID_2_" class="st0" d="M18.5,0.7C18.5,0.7,18.5,0.7,18.5,0.7c3.2,0.8,5.8,2.6,8.5,4.2c2.6,1.5,5.7,2.9,7.2,4.9
		c1.8,2.4,1.3,8,1.3,12.1c0,2,0.1,3.8-0.2,5.4c-0.6,3.4-2.9,4.6-5.4,6.1c-1.2,0.7-2.5,1.4-3.6,2.1c-2.5,1.4-4.8,3-7.8,3.7
		c-0.4,0-0.7,0-1.1,0c-1.7-0.3-3-1-4.3-1.7c0-2.3,0-4.6,0-6.9c1.2,0.4,2.4,0.9,3.9,1c3.5,0.2,6.3-0.9,8.2-2.4
		c1.9-1.5,3.5-3.7,4.1-6.4c1.5-6.6-2.3-11.8-6.9-13.7c-2.8-1.1-6.4-1-8.8,0.1c-3.6,1.5-6.4,4.5-7.1,8.8c-0.2,1.5-0.1,3.2-0.1,5.2
		c0,3.4,0,7.1,0,10.5c-1.8-1.1-3.9-2-5-3.8c-1.3-2.1-1.1-5.6-1.1-8.8c0-2.9-0.3-6.9,0.4-9.5c0.8-3.1,4.7-4.8,7.4-6.3
		c3-1.7,6-3.7,9.2-4.6C17.5,0.7,18,0.7,18.5,0.7z"/>
	<path id="path7" class="st1" d="M41.9,27.5V12.3c0-0.9,0.5-1.4,1.4-1.4h6c3.6,0,5.7,2.5,5.7,5.5s-2.1,5.5-5.7,5.5h-4.8v5.6
		c0,0.7-0.6,1.3-1.3,1.3C42.5,28.8,41.9,28.2,41.9,27.5z M49,13.3h-4.5v6.2H49c1.9,0,3.3-1.3,3.3-3.1C52.3,14.5,50.9,13.3,49,13.3z"
		/>
	<path id="path9" class="st1" d="M56.6,22.3c0-3.7,2.5-6.7,6.5-6.7c4,0,6.5,3,6.5,6.7c0,3.7-2.5,6.8-6.5,6.8
		C59.1,29,56.6,26,56.6,22.3z M67.1,22.3c0-2.4-1.4-4.6-4-4.6c-2.6,0-4,2.2-4,4.6c0,2.5,1.4,4.6,4,4.6
		C65.6,26.9,67.1,24.7,67.1,22.3z"/>
	<path id="path11" class="st1" d="M83.4,27.7l-2.8-8.9l-2.8,8.9c-0.2,0.7-0.8,1.1-1.5,1.1c-0.7,0-1.4-0.5-1.5-1.1l-3.3-10.4
		c0-0.1-0.1-0.2-0.1-0.4c0-0.6,0.5-1.2,1.2-1.2c0.6,0,1,0.3,1.1,0.9l2.7,9.1l3-9c0.2-0.6,0.7-1,1.3-1c0.6,0,1.1,0.4,1.3,1l3,9
		l2.7-9.1c0.1-0.5,0.6-0.9,1.1-0.9c0.6,0,1.2,0.5,1.2,1.2c0,0.1,0,0.3-0.1,0.4l-3.3,10.4c-0.2,0.7-0.8,1.1-1.5,1.1
		S83.6,28.4,83.4,27.7z"/>
	<path id="path13" class="st1" d="M98,15.5c3.9,0,6.3,3,6.3,6.4c0,0.7-0.5,1.1-1.4,1.1h-8.8c0.2,2.2,1.8,4,4.4,4
		c1.1,0,2.2-0.3,3.2-1c0.1-0.1,0.3-0.1,0.5-0.1c0.5,0,1,0.4,1,1c0,0.3-0.2,0.6-0.4,0.8c-1.3,0.9-2.8,1.4-4.5,1.4
		c-3.8,0-6.7-2.7-6.7-6.8C91.6,18.5,94.3,15.5,98,15.5z M94.1,21.3h7.9c-0.1-1.7-1.2-3.8-3.9-3.8C95.5,17.5,94.2,19.6,94.1,21.3z"/>
	<path id="path15" class="st1" d="M114.1,16.8c0,0.6-0.4,1-1.3,1.1c-1.1,0.1-2.6,0.9-3.1,1.8v7.9c0,0.7-0.6,1.2-1.2,1.2
		c-0.7,0-1.2-0.5-1.2-1.2V16.9c0-0.7,0.5-1.2,1.2-1.2c0.7,0,1.2,0.5,1.2,1.2v0.9c0.7-1,1.7-1.8,2.7-2.1c0.3-0.1,0.5-0.1,0.7-0.1
		C113.8,15.6,114.1,16.2,114.1,16.8z"/>
	<path id="path17" class="st1" d="M116.4,27.5V12.3c0-0.9,0.5-1.4,1.4-1.4h6c3.6,0,5.7,2.5,5.7,5.5s-2.1,5.5-5.7,5.5H119v5.6
		c0,0.7-0.6,1.3-1.3,1.3C117,28.8,116.4,28.2,116.4,27.5z M123.5,13.3H119v6.2h4.5c1.9,0,3.3-1.3,3.3-3.1
		C126.8,14.5,125.4,13.3,123.5,13.3z"/>
	<path id="path19" class="st1" d="M142,20v7.6c0,0.7-0.6,1.2-1.2,1.2c-0.6,0-1.2-0.5-1.2-1.2v-0.4c-1,1.1-2.5,1.8-4.2,1.8
		c-2.1,0-4.5-1.4-4.5-4.3c0-2.9,2.3-4.2,4.5-4.2c1.7,0,3.2,0.6,4.2,1.7v-2.1c0-1.6-1.3-2.6-3.1-2.6c-1.2,0-2.2,0.3-3.2,1.1
		c-0.2,0.1-0.4,0.2-0.6,0.2c-0.5,0-1-0.5-1-1c0-0.3,0.2-0.6,0.4-0.8c1.4-1.1,2.9-1.6,4.7-1.6C139.6,15.5,142,16.7,142,20z
		 M139.6,25.9v-2.2c-0.7-1-2-1.5-3.3-1.5c-1.7,0-3,1-3,2.6c0,1.5,1.2,2.6,3,2.6C137.6,27.3,138.9,26.8,139.6,25.9z"/>
	<path id="path21" class="st1" d="M151.6,15.5c1.8,0,3.1,0.6,4.1,1.5c0.2,0.2,0.4,0.5,0.4,0.8c0,0.6-0.5,1.1-1.1,1.1
		c-0.3,0-0.5-0.1-0.7-0.3c-0.7-0.7-1.6-1-2.6-1c-2.5,0-4.2,1.9-4.2,4.6s1.6,4.6,4.2,4.6c1,0,1.8-0.3,2.6-1c0.2-0.2,0.4-0.3,0.7-0.3
		c0.6,0,1.1,0.5,1.1,1.1c0,0.3-0.2,0.6-0.4,0.8c-1,0.9-2.3,1.5-4.1,1.5c-3.9,0-6.6-2.9-6.6-6.8S147.7,15.5,151.6,15.5z"/>
	<path id="path23" class="st1" d="M170,27.6c0,0.7-0.5,1.2-1.2,1.2c-0.4,0-0.7-0.1-0.9-0.4l-4.4-5.2l-2,1.9v2.6
		c0,0.7-0.6,1.2-1.2,1.2c-0.6,0-1.2-0.5-1.2-1.2V12c0-0.7,0.5-1.2,1.2-1.2c0.6,0,1.2,0.5,1.2,1.2v10.4l6.5-6.4
		c0.2-0.2,0.5-0.3,0.8-0.3c0.6,0,1.1,0.5,1.1,1.1c0,0.3-0.1,0.6-0.3,0.8l-4.2,4.1l4.5,5.1C169.9,27,170,27.4,170,27.6z"/>
</g>
</svg>
