<?xml version="1.0" encoding="utf-8"?>
<!-- Generator: Adobe Illustrator 16.0.0, SVG Export Plug-In . SVG Version: 6.00 Build 0)  -->
<!DOCTYPE svg PUBLIC "-//W3C//DTD SVG 1.1//EN" "http://www.w3.org/Graphics/SVG/1.1/DTD/svg11.dtd">
<svg version="1.1" id="Layer_1" xmlns="http://www.w3.org/2000/svg" xmlns:xlink="http://www.w3.org/1999/xlink" x="0px" y="0px"
	 width="494.186px" height="100.791px" viewBox="0 0 494.186 100.791" enable-background="new 0 0 494.186 100.791"
	 xml:space="preserve">
<g>
	<g>
		<g>
			
				<linearGradient id="SVGID_1_" gradientUnits="userSpaceOnUse" x1="364.4795" y1="-182.5313" x2="347.5266" y2="-278.676" gradientTransform="matrix(1 0 0 -1 -303.5 -180.209)">
				<stop  offset="0" style="stop-color:#391787"/>
				<stop  offset="1" style="stop-color:#0065DB"/>
			</linearGradient>
			<path fill="url(#SVGID_1_)" d="M52.502,4.438c25.204,0,45.712,20.616,45.712,45.958c0,25.339-20.506,45.958-45.712,45.958
				S6.792,75.735,6.792,50.396C6.792,25.055,27.298,4.438,52.502,4.438 M52.502,1.582c-26.827,0-48.568,21.859-48.568,48.814
				c0,26.958,21.741,48.813,48.568,48.813c26.825,0,48.568-21.854,48.568-48.813C101.071,23.44,79.326,1.582,52.502,1.582
				L52.502,1.582z"/>
		</g>
		
			<linearGradient id="SVGID_2_" gradientUnits="userSpaceOnUse" x1="343.2842" y1="-212.8882" x2="336.8123" y2="-249.5915" gradientTransform="matrix(1 0 0 -1 -303.5 -180.209)">
			<stop  offset="0" style="stop-color:#391787"/>
			<stop  offset="1" style="stop-color:#0065DB"/>
		</linearGradient>
		<path fill="url(#SVGID_2_)" d="M51.567,59.351c-0.592,2.071-1.479,3.901-2.699,5.473c-1.186,1.551-2.736,2.785-4.593,3.68
			c-1.875,0.889-4.08,1.334-6.659,1.334c-2.673,0-4.933-0.477-6.822-1.42c-1.88-0.934-3.398-2.195-4.598-3.779
			c-1.16-1.57-2.03-3.396-2.571-5.477c-0.557-2.094-0.82-4.277-0.82-6.555v-17.7h7.711v17.7c0,1.344,0.128,2.615,0.373,3.809
			c0.252,1.217,0.645,2.277,1.224,3.23c0.571,0.942,1.281,1.694,2.195,2.242c0.879,0.555,1.98,0.829,3.309,0.829
			c1.325,0,2.421-0.278,3.333-0.852c0.913-0.57,1.663-1.324,2.205-2.267c0.57-0.945,0.973-2.031,1.21-3.256
			c0.231-1.209,0.354-2.451,0.354-3.738V34.909h7.712v17.695h0.004C52.43,55.026,52.139,57.267,51.567,59.351z"/>
		<g>
			
				<linearGradient id="SVGID_3_" gradientUnits="userSpaceOnUse" x1="375.0518" y1="-214.5063" x2="368.4639" y2="-251.8675" gradientTransform="matrix(1 0 0 -1 -303.5 -180.209)">
				<stop  offset="0" style="stop-color:#391787"/>
				<stop  offset="1" style="stop-color:#0065DB"/>
			</linearGradient>
			<path fill="url(#SVGID_3_)" d="M83.538,60.871c0,1.51-0.313,2.823-0.938,3.938c-0.623,1.119-1.476,2.047-2.56,2.783
				c-1.083,0.74-2.346,1.299-3.793,1.674c-1.443,0.379-2.97,0.568-4.58,0.568H54.625V34.864H74.08c1.214,0,2.317,0.264,3.301,0.789
				c0.986,0.525,1.823,1.209,2.514,2.042c0.686,0.837,1.221,1.793,1.598,2.857c0.376,1.071,0.568,2.162,0.568,3.277
				c0,1.678-0.418,3.251-1.259,4.728c-0.837,1.477-2.091,2.592-3.765,3.348c2,0.592,3.585,1.645,4.752,3.154
				S83.538,58.51,83.538,60.871z M62.704,41.761V49h7.932c0.886,0,1.673-0.294,2.362-0.885c0.69-0.591,1.033-1.51,1.033-2.76
				c0-1.149-0.301-2.031-0.912-2.656c-0.606-0.625-1.338-0.938-2.191-0.938L62.704,41.761L62.704,41.761z M75.311,59.246
				c0-1.082-0.31-2.002-0.933-2.759c-0.628-0.754-1.414-1.135-2.368-1.135h-9.307v7.635h8.964c1.05,0,1.92-0.342,2.61-1.03
				C74.967,61.267,75.311,60.36,75.311,59.246z"/>
		</g>
	</g>
	<g>
		<g>
			<path fill="#170C68" d="M132.932,37.331V22.28h6.113v15.051c0,1.511,0.368,2.671,1.107,3.486c0.738,0.815,1.822,1.22,3.253,1.22
				c1.429,0,2.524-0.405,3.289-1.22c0.76-0.814,1.146-1.975,1.146-3.486V22.28h6.109v15.051c0,2.229-0.516,4.152-1.553,5.766
				c-1.036,1.615-2.347,2.794-3.932,3.538c-1.586,0.74-3.306,1.112-5.165,1.112c-2.906,0-5.359-0.912-7.36-2.731
				C133.932,43.197,132.932,40.634,132.932,37.331z"/>
			<path fill="#170C68" d="M160.237,22.28h6.112v20.549h7.614v4.668h-13.725L160.237,22.28L160.237,22.28z"/>
			<path fill="#170C68" d="M176.713,26.948V22.28h19.799v4.672h-6.862v20.545h-6.112V26.948H176.713z"/>
			<path fill="#170C68" d="M201.232,47.498V22.28h6.112v25.218H201.232z"/>
			<path fill="#170C68" d="M242.19,22.28v25.218h-6.112V33.272l-5.823,14.225h-4.542l-5.826-14.225v14.225h-6.112V22.28h7.006
				L228,39.667l7.185-17.387H242.19z"/>
			<path fill="#170C68" d="M264.567,47.498l-1.394-4.241h-9.006l-1.392,4.241h-6.508l8.721-25.289h7.435l8.687,25.289H264.567z
				 M255.702,38.588h5.934l-2.967-8.98L255.702,38.588z"/>
			<path fill="#170C68" d="M273.463,26.948V22.28h19.804v4.672h-6.865v20.545h-6.113V26.948H273.463z"/>
			<path fill="#170C68" d="M313.172,22.209v4.668h-9.08v5.428h8.007v4.668h-8.007v5.855h9.08v4.668h-15.192V22.209H313.172z"/>
			<path fill="#170C68" d="M347.233,47.498l-1.396-4.241h-9.008l-1.39,4.241h-6.508l8.724-25.289h7.434l8.687,25.289H347.233z
				 M338.368,38.588h5.934l-2.965-8.98L338.368,38.588z"/>
			<path fill="#170C68" d="M366.674,22.28c4.002,0,7.289,1.168,9.863,3.504c2.569,2.336,3.86,5.364,3.86,9.088
				s-1.291,6.759-3.86,9.103c-2.574,2.348-5.861,3.523-9.863,3.523h-8.829V22.28H366.674z M363.958,42.829h2.717
				c2.334,0,4.172-0.718,5.506-2.158c1.332-1.436,2-3.363,2-5.781c0-2.422-0.668-4.349-2-5.785
				c-1.334-1.436-3.172-2.154-5.506-2.154h-2.717V42.829z"/>
			<path fill="#170C68" d="M394.161,22.28c4.002,0,7.291,1.168,9.865,3.504c2.569,2.336,3.858,5.364,3.858,9.088
				s-1.291,6.759-3.858,9.103c-2.574,2.348-5.863,3.523-9.865,3.523h-8.828V22.28H394.161z M391.444,42.829h2.717
				c2.336,0,4.17-0.718,5.504-2.158c1.336-1.436,2.002-3.363,2.002-5.781c0-2.422-0.666-4.349-2.002-5.785
				c-1.33-1.436-3.168-2.154-5.504-2.154h-2.717V42.829z"/>
			<path fill="#170C68" d="M415.083,44.086c-2.49-2.444-3.736-5.532-3.736-9.271c0-3.735,1.246-6.818,3.736-9.248
				c2.49-2.43,5.541-3.646,9.152-3.646c3.608,0,6.647,1.217,9.114,3.646c2.466,2.429,3.697,5.517,3.697,9.248
				c0,3.739-1.238,6.826-3.715,9.271c-2.482,2.44-5.518,3.664-9.117,3.664C420.616,47.75,417.575,46.527,415.083,44.086z
				 M429.028,40.095c1.2-1.313,1.803-3.073,1.803-5.279c0-2.202-0.602-3.961-1.803-5.278c-1.205-1.313-2.814-1.976-4.828-1.976
				c-2.019,0-3.623,0.662-4.824,1.976c-1.203,1.317-1.803,3.076-1.803,5.278c0,2.206,0.6,3.966,1.803,5.279
				c1.201,1.321,2.809,1.979,4.824,1.979C426.213,42.07,427.823,41.416,429.028,40.095z"/>
			<path fill="#170C68" d="M458.385,22.209h6.117v25.289h-6.117l-10.223-15.914v15.914h-6.111V22.209h6.111l10.223,15.911V22.209z"
				/>
			<path fill="#170C68" d="M479.434,26.77c-0.76,0-1.387,0.205-1.875,0.61c-0.489,0.409-0.731,0.993-0.731,1.759
				c0,0.771,0.223,1.388,0.676,1.853c0.453,0.469,1.043,0.826,1.771,1.075c0.729,0.25,1.536,0.491,2.428,0.718
				c0.897,0.23,1.783,0.506,2.662,0.83c0.885,0.323,1.686,0.725,2.414,1.201c0.729,0.48,1.315,1.157,1.77,2.031
				c0.451,0.874,0.676,1.923,0.676,3.14c0,2.135-0.862,3.958-2.588,5.479c-1.727,1.521-4.004,2.281-6.826,2.281
				c-2.823,0-5.102-0.681-6.829-2.046c-1.728-1.365-2.589-3.307-2.589-5.822h6.507c0.163,2.013,1.188,3.021,3.071,3.021
				c0.881,0,1.57-0.234,2.076-0.703c0.498-0.465,0.75-1.061,0.75-1.778s-0.227-1.306-0.68-1.76
				c-0.447-0.454-1.037-0.814-1.771-1.079c-0.727-0.264-1.535-0.51-2.424-0.737c-0.897-0.227-1.785-0.509-2.666-0.84
				c-0.881-0.335-1.684-0.74-2.412-1.206c-0.727-0.465-1.315-1.138-1.768-2.012c-0.453-0.875-0.681-1.909-0.681-3.106
				c0-2.347,0.869-4.229,2.611-5.64c1.736-1.414,3.961-2.12,6.662-2.12c2.703,0,4.893,0.618,6.559,1.853
				c1.668,1.231,2.539,3.177,2.609,5.833h-6.646c-0.097-0.908-0.392-1.611-0.873-2.102C480.827,27.019,480.204,26.77,479.434,26.77z
				"/>
		</g>
		<g>
			<path fill="#170C68" d="M133.567,78.763V62.334h11.038v2.797h-7.843v4.231h6.522v2.595h-6.522v6.806H133.567z"/>
			<path fill="#170C68" d="M160.202,78.877c-1.204,0-2.295-0.233-3.275-0.703c-0.979-0.473-1.819-1.098-2.521-1.879
				c-0.703-0.776-1.247-1.668-1.633-2.672c-0.386-1-0.579-2.031-0.579-3.076c0-1.098,0.205-2.144,0.613-3.146
				c0.409-1.006,0.974-1.892,1.69-2.66c0.718-0.773,1.57-1.389,2.557-1.846c0.988-0.449,2.06-0.681,3.217-0.681
				c1.188,0,2.271,0.244,3.252,0.729c0.979,0.486,1.816,1.123,2.51,1.908c0.693,0.789,1.233,1.682,1.621,2.682
				c0.384,1.008,0.578,2.023,0.578,3.059c0,1.098-0.202,2.139-0.603,3.137c-0.399,0.992-0.956,1.873-1.666,2.638
				c-0.71,0.766-1.559,1.373-2.544,1.829C162.431,78.647,161.359,78.877,160.202,78.877z M155.434,70.547
				c0,0.707,0.109,1.396,0.324,2.058c0.217,0.666,0.528,1.25,0.938,1.76c0.408,0.51,0.909,0.92,1.502,1.229
				c0.595,0.309,1.269,0.461,2.026,0.461c0.771,0,1.453-0.156,2.048-0.473c0.593-0.32,1.095-0.736,1.504-1.262
				c0.408-0.523,0.718-1.115,0.926-1.771c0.207-0.653,0.312-1.323,0.312-2.002c0-0.711-0.112-1.397-0.336-2.062
				c-0.222-0.661-0.539-1.25-0.948-1.76c-0.408-0.506-0.909-0.912-1.504-1.213c-0.594-0.301-1.26-0.449-2.001-0.449
				c-0.772,0-1.458,0.156-2.061,0.474c-0.602,0.313-1.103,0.731-1.503,1.248c-0.401,0.519-0.706,1.104-0.915,1.76
				C155.54,69.201,155.434,69.867,155.434,70.547z"/>
			<path fill="#170C68" d="M177.394,78.763V62.334h7.267c0.756,0,1.453,0.156,2.094,0.474c0.641,0.313,1.191,0.731,1.656,1.248
				c0.461,0.518,0.823,1.102,1.086,1.76c0.263,0.656,0.395,1.313,0.395,1.979c0,1.06-0.267,2.031-0.799,2.904
				c-0.531,0.866-1.253,1.495-2.163,1.883l3.748,6.181h-3.587l-3.356-5.507h-3.146v5.507H177.394L177.394,78.763z M180.588,70.453
				h4.002c0.293,0,0.566-0.07,0.822-0.207c0.253-0.144,0.475-0.328,0.659-0.565c0.186-0.242,0.333-0.523,0.44-0.849
				c0.107-0.319,0.161-0.67,0.161-1.037c0-0.387-0.061-0.744-0.184-1.067c-0.124-0.324-0.291-0.604-0.497-0.845
				c-0.211-0.237-0.45-0.424-0.719-0.555c-0.271-0.132-0.543-0.197-0.821-0.197h-3.864L180.588,70.453L180.588,70.453z"/>
			<path fill="#170C68" d="M224.993,74.526c0,0.691-0.139,1.308-0.414,1.826c-0.278,0.525-0.661,0.965-1.146,1.32
				c-0.485,0.354-1.049,0.625-1.689,0.809c-0.64,0.187-1.322,0.279-2.048,0.279h-7.937V62.334h8.793c0.57,0,1.087,0.121,1.55,0.367
				c0.464,0.245,0.857,0.569,1.181,0.961c0.325,0.394,0.575,0.844,0.752,1.342c0.177,0.498,0.267,1.004,0.267,1.515
				c0,0.805-0.2,1.555-0.604,2.258c-0.4,0.703-0.986,1.225-1.757,1.561c0.941,0.277,1.686,0.777,2.232,1.494
				C224.719,72.549,224.993,73.444,224.993,74.526z M214.953,65.063v4.14h4.257c0.54,0,0.998-0.187,1.377-0.554
				c0.378-0.373,0.566-0.883,0.566-1.528c0-0.634-0.173-1.136-0.521-1.504c-0.347-0.371-0.774-0.554-1.283-0.554H214.953z
				 M221.779,73.924c0-0.293-0.051-0.571-0.152-0.844c-0.099-0.271-0.234-0.506-0.404-0.707c-0.171-0.201-0.369-0.356-0.602-0.474
				c-0.23-0.114-0.486-0.174-0.763-0.174h-4.905v4.326h4.742c0.294,0,0.567-0.053,0.823-0.16c0.253-0.106,0.473-0.26,0.658-0.453
				c0.185-0.192,0.331-0.422,0.438-0.682C221.724,74.494,221.779,74.215,221.779,73.924z"/>
			<path fill="#170C68" d="M245.611,75.963v2.8h-11.407V62.334h11.201v2.797h-8.007v3.955h6.918v2.593h-6.918v4.284H245.611z"/>
			<path fill="#170C68" d="M259.497,62.334h2.824l6.248,16.429h-3.289l-1.525-4.097h-5.74l-1.5,4.097h-3.291L259.497,62.334z
				 M263.174,72.418l-2.266-6.453l-2.359,6.453H263.174z"/>
			<path fill="#170C68" d="M277.362,62.334l4.443,12.424l4.395-12.424h3.355l-6.408,16.429h-2.687l-6.455-16.429H277.362z"/>
			<path fill="#170C68" d="M309.433,75.963v2.8h-11.406V62.334h11.199v2.797h-8.004v3.955h6.916v2.593h-6.916v4.284H309.433z"/>
			<path fill="#170C68" d="M318.644,78.763V62.334h7.266c0.758,0,1.455,0.156,2.096,0.474c0.641,0.313,1.193,0.731,1.654,1.248
				c0.463,0.518,0.826,1.102,1.088,1.76c0.26,0.656,0.395,1.313,0.395,1.979c0,1.06-0.266,2.031-0.801,2.904
				c-0.531,0.866-1.252,1.495-2.162,1.883l3.75,6.181h-3.588l-3.355-5.507h-3.147v5.507H318.644L318.644,78.763z M321.836,70.453
				h4.006c0.291,0,0.564-0.07,0.82-0.207c0.254-0.144,0.476-0.328,0.66-0.565c0.182-0.242,0.329-0.523,0.442-0.849
				c0.104-0.319,0.156-0.67,0.156-1.037c0-0.387-0.061-0.744-0.184-1.067c-0.123-0.324-0.289-0.604-0.5-0.845
				c-0.205-0.237-0.443-0.424-0.715-0.555c-0.272-0.132-0.545-0.197-0.822-0.197h-3.865L321.836,70.453L321.836,70.453z"/>
			<path fill="#170C68" d="M366.243,74.526c0,0.691-0.141,1.308-0.416,1.826c-0.279,0.525-0.658,0.965-1.145,1.32
				c-0.484,0.354-1.052,0.625-1.689,0.809c-0.643,0.187-1.324,0.279-2.049,0.279h-7.938V62.334h8.796
				c0.567,0,1.086,0.121,1.551,0.367c0.461,0.245,0.854,0.569,1.178,0.961c0.322,0.394,0.574,0.844,0.754,1.342
				c0.176,0.498,0.264,1.004,0.264,1.515c0,0.805-0.199,1.555-0.6,2.258c-0.402,0.703-0.988,1.225-1.76,1.561
				c0.94,0.277,1.686,0.777,2.235,1.494C365.969,72.549,366.243,73.444,366.243,74.526z M356.202,65.063v4.14h4.256
				c0.541,0,0.998-0.187,1.379-0.554c0.377-0.373,0.564-0.883,0.564-1.528c0-0.634-0.172-1.136-0.521-1.504
				c-0.348-0.371-0.772-0.554-1.284-0.554H356.202z M363.028,73.924c0-0.293-0.053-0.571-0.15-0.844
				c-0.102-0.271-0.236-0.506-0.408-0.707c-0.166-0.201-0.367-0.356-0.6-0.474c-0.232-0.115-0.486-0.174-0.762-0.174h-4.906v4.326
				h4.742c0.293,0,0.566-0.053,0.82-0.16c0.254-0.106,0.475-0.26,0.657-0.453c0.188-0.192,0.336-0.422,0.443-0.682
				C362.972,74.494,363.028,74.215,363.028,73.924z"/>
			<path fill="#170C68" d="M382.396,76.054c0.756,0,1.393-0.152,1.905-0.462c0.521-0.309,0.937-0.711,1.25-1.204
				c0.318-0.492,0.543-1.058,0.675-1.701c0.131-0.64,0.194-1.297,0.194-1.976v-8.377h3.17v8.377c0,1.123-0.135,2.181-0.401,3.17
				c-0.271,0.984-0.695,1.849-1.275,2.588c-0.576,0.744-1.322,1.328-2.232,1.761c-0.91,0.432-1.998,0.647-3.262,0.647
				c-1.313,0-2.426-0.229-3.344-0.683c-0.92-0.457-1.662-1.057-2.232-1.809c-0.572-0.746-0.984-1.613-1.238-2.6
				c-0.254-0.99-0.383-2.012-0.383-3.076v-8.377h3.193v8.377c0,0.691,0.066,1.361,0.197,1.998c0.131,0.643,0.354,1.209,0.668,1.699
				c0.32,0.494,0.73,0.893,1.24,1.193C381.03,75.903,381.653,76.054,382.396,76.054z"/>
			<path fill="#170C68" d="M399.52,78.763V62.334h3.191v16.429H399.52z"/>
			<path fill="#170C68" d="M412.85,78.763V62.334h3.193v13.629h8.377v2.8H412.85z"/>
			<path fill="#170C68" d="M433.073,78.763V62.334h5.967c1.346,0,2.521,0.215,3.531,0.644c1.01,0.436,1.854,1.02,2.535,1.764
				c0.678,0.736,1.186,1.604,1.526,2.604c0.34,0.994,0.51,2.055,0.51,3.182c0,1.25-0.19,2.377-0.565,3.39
				c-0.381,1.008-0.922,1.875-1.635,2.588c-0.709,0.724-1.56,1.272-2.56,1.672c-0.994,0.388-2.104,0.589-3.344,0.589h-5.966V78.763z
				 M443.924,70.524c0-0.784-0.108-1.516-0.324-2.178c-0.213-0.666-0.53-1.234-0.946-1.711c-0.416-0.479-0.931-0.848-1.539-1.111
				c-0.607-0.264-1.301-0.395-2.074-0.395h-2.773v10.832h2.773c0.789,0,1.488-0.141,2.096-0.42c0.611-0.279,1.121-0.658,1.529-1.146
				c0.408-0.481,0.723-1.057,0.936-1.721C443.815,72.013,443.924,71.295,443.924,70.524z"/>
			<path fill="#170C68" d="M467.762,75.963v2.8H456.35V62.334h11.201v2.797h-8.006v3.955h6.92v2.593h-6.92v4.284H467.762z"/>
			<path fill="#170C68" d="M476.971,78.763V62.334h7.269c0.752,0,1.449,0.156,2.094,0.474c0.639,0.313,1.189,0.731,1.654,1.248
				c0.463,0.518,0.819,1.102,1.086,1.76c0.262,0.656,0.396,1.313,0.396,1.979c0,1.06-0.27,2.031-0.801,2.904
				c-0.531,0.866-1.256,1.495-2.164,1.883l3.748,6.181h-3.588l-3.354-5.507h-3.146v5.507H476.971L476.971,78.763z M480.165,70.453
				h4.002c0.297,0,0.568-0.07,0.82-0.207c0.258-0.144,0.477-0.328,0.662-0.565c0.186-0.242,0.329-0.523,0.438-0.849
				c0.105-0.319,0.16-0.67,0.16-1.037c0-0.387-0.061-0.744-0.184-1.067c-0.123-0.324-0.289-0.604-0.498-0.845
				c-0.207-0.237-0.447-0.424-0.72-0.555c-0.27-0.132-0.541-0.197-0.819-0.197h-3.863L480.165,70.453L480.165,70.453z"/>
		</g>
	</g>
</g>
</svg>
