<?xml version="1.0" encoding="UTF-8"?>
<svg width="1003px" height="433px" viewBox="0 0 1003 433" version="1.1" xmlns="http://www.w3.org/2000/svg" xmlns:xlink="http://www.w3.org/1999/xlink">
    <!-- Generator: Sketch 63.1 (92452) - https://sketch.com -->
    <title>wePOS Logo_Main</title>
    <desc>Created with Sketch.</desc>
    <defs>
        <linearGradient x1="59.9947228%" y1="12.3109479%" x2="20.4443641%" y2="79.8516779%" id="linearGradient-1">
            <stop stop-color="#0ACEFE" offset="0.0422297297%"></stop>
            <stop stop-color="#495AFF" offset="100%"></stop>
        </linearGradient>
        <path d="M0,169.03155 L0,399.878654 L0,399.878654 L81.024295,265.287664 C97.8752606,237.296206 128.159315,220.17909 160.831578,220.17909 L227.973555,220.17909 C288.774332,220.17909 338.0631,170.890322 338.0631,110.089545 C338.0631,49.2887681 288.774332,-1.11689215e-14 227.973555,0 L169.03155,0 C75.6780026,1.71487684e-14 -1.14325123e-14,75.6780026 0,169.03155 Z" id="path-2"></path>
        <linearGradient x1="50%" y1="0%" x2="50%" y2="100%" id="linearGradient-4">
            <stop stop-color="#265FF9" offset="0%"></stop>
            <stop stop-color="#4339FF" offset="100%"></stop>
        </linearGradient>
    </defs>
    <g id="Page-1" stroke="none" stroke-width="1" fill="none" fill-rule="evenodd">
        <g id="wePOS-Logo_Main">
            <g id="Group-2-Copy">
                <g id="Group">
                    <g id="Path-3" transform="translate(0.000000, -0.000000)">
                        <mask id="mask-3" fill="white">
                            <use xlink:href="#path-2"></use>
                        </mask>
                        <use id="Mask" fill="url(#linearGradient-1)" xlink:href="#path-2"></use>
                        <path d="M6.90681195,399.878654 C27.8681059,233.770594 76.3796417,150.716564 152.441419,150.716564 C266.534086,150.716564 313.492295,165.047774 313.492295,47.1371854 C313.492295,-31.4698737 423.063494,-4.98481664 642.205892,126.592357 L130.161041,465.660356 L6.90681195,399.878654 Z" fill="url(#linearGradient-4)" opacity="0.16031901" mask="url(#mask-3)"></path>
                    </g>
                </g>
            </g>
            <path d="M430.794949,281.320014 C442.721068,281.320014 453.935731,284.404046 464.353548,290.543117 C474.746569,296.667575 483.110904,305.124848 489.399423,315.852321 C495.57736,326.391155 498.817441,338.172523 499.12031,351.118931 L499.137717,352.09538 L499.12852,352.260924 C498.884372,356.655601 497.006104,360.474745 493.648744,363.472387 C490.458832,366.320524 486.626496,367.826827 482.349504,367.924083 L481.905478,367.929115 L396.092,367.929 L396.12986,368.123611 C397.839112,376.659476 401.579135,383.644363 407.368071,389.201956 L407.785051,389.596502 L408.190012,389.968985 C415.683069,396.76681 424.782521,400.145509 435.72439,400.145509 C443.380059,400.145509 449.454096,399.055297 453.940893,396.961459 C458.426109,394.868358 462.395487,392.21985 465.86578,389.009774 L466.409576,388.498253 L466.795671,388.128945 L467.253813,387.85406 C470.552621,385.874775 473.892391,384.838295 477.235481,384.838295 C481.46985,384.838295 485.182741,386.401617 488.078632,389.423416 C490.911102,392.379037 492.390323,395.98062 492.390323,399.993137 C492.390323,404.993962 490.107287,409.459957 485.857795,413.198246 L485.666,413.363 L485.298794,413.726197 C480.217369,418.663761 473.734812,422.845317 465.874842,426.294349 L465.084254,426.636812 L464.284489,426.974396 C455.405849,430.673829 446.306943,432.530749 437.021612,432.530749 C422.230915,432.530749 409.112343,429.400704 397.73951,423.113284 C386.313726,416.79659 377.44663,407.929494 371.216395,396.584887 C365.024407,385.309925 361.935133,372.58396 361.935133,358.482047 C361.935133,343.185337 365.101955,329.646025 371.46548,317.933451 C377.82971,306.219579 386.289282,297.155751 396.809358,290.825086 C407.322613,284.498525 418.681117,281.320014 430.794949,281.320014 Z M336.357219,283.136124 C340.912192,283.136124 344.937395,284.808132 348.167057,288.037794 C351.422979,291.293715 353.068727,295.499516 353.068727,300.366521 C353.068727,302.069242 352.679454,304.02471 351.914806,306.408297 L351.756876,306.890774 L312.061896,418.970717 L312.009313,419.112057 L311.846481,419.528289 C310.398721,423.098109 307.998198,425.88846 304.740104,427.750228 C301.548845,429.573805 298.066273,430.315909 294.431105,429.948796 L294.126,429.914 L293.849856,429.890883 C287.864746,429.324501 283.159676,425.967229 280.066943,420.261727 L279.867533,419.886304 L279.676726,419.512277 L279.571482,419.301789 L257.146,360.651 L236.502705,419.143266 L236.223091,419.771667 C234.845942,422.763614 232.878189,425.171106 230.341151,426.900905 C227.888356,428.573265 225.17781,429.575548 222.275292,429.878265 L221.911,429.911 L221.630217,429.945334 C218.377851,430.292081 215.180789,429.633751 212.142773,428.032954 L211.747421,427.818814 L211.353923,427.594016 C207.988634,425.621261 205.591963,422.807352 204.31586,419.281261 L204.197,418.942 L164.000341,306.909257 L163.940277,306.730874 L163.769127,306.185192 C163.216183,304.321566 162.941345,302.377342 162.941345,300.366521 C162.941345,295.716453 164.510918,291.611417 167.590586,288.294852 C170.768354,284.87264 174.985607,283.136124 179.912298,283.136124 C187.667248,283.136124 193.270865,286.867154 195.709047,293.747247 L195.832332,294.105919 L222.375,369.272 L242.38567,316.824773 L242.584413,316.338188 C245.436573,309.598494 250.930843,305.967224 258.264481,305.967224 C265.373856,305.967224 270.621413,309.715637 273.248547,316.51588 L273.352,316.792 L293.8,368.439 L319.915805,294.112992 L320.092746,293.642599 C322.781381,286.765805 328.523335,283.136124 336.357219,283.136124 Z M430.794949,313.705254 C422.139803,313.705254 414.777294,316.096171 408.539248,320.888816 C403.770482,324.552625 400.224036,329.87856 397.930122,336.976147 L397.726,337.619 L462.938,337.619 L462.892845,337.388507 C461.606408,331.217472 458.424356,326.072954 453.249139,321.80605 L452.847113,321.479555 C446.341419,316.275 439.047873,313.705254 430.794949,313.705254 Z" id="Combined-Shape" fill="#0B2162" fill-rule="nonzero"></path>
            <path d="M934.895248,236.176703 C946.167755,236.176703 956.83861,238.000781 966.882764,241.653201 C976.725337,245.232318 984.825997,249.994626 991.145396,255.964951 L991.577415,256.378774 L991.825158,256.597076 C996.315268,260.61899 998.825927,265.208971 999.066061,270.248753 L999.08055,270.658367 L999.085066,271.049314 C999.085066,275.427274 997.420005,279.374085 994.244244,282.667466 C991.014761,286.01656 986.965581,287.760822 982.373558,287.760822 C978.963155,287.760822 975.943558,286.756152 973.520514,284.727037 L973.127704,284.385361 L973.02844,284.286096 C969.037177,280.294833 963.366608,276.829486 955.985587,273.94126 C948.562986,271.036764 941.53744,269.59972 934.895248,269.59972 C924.21377,269.59972 915.944675,271.734933 909.993898,275.877879 C904.419921,279.758495 901.793449,284.579236 901.793449,290.767082 C901.793449,297.65198 904.415937,302.631388 909.890913,306.23517 C916.173888,310.370799 925.837379,313.989467 938.766411,316.973456 C952.575721,319.983177 963.926059,323.544067 972.84125,327.686479 C982.186016,332.028492 989.493232,338.141718 994.665445,345.99582 C999.894464,353.936182 1002.45784,364.094754 1002.45784,376.383705 C1002.45784,387.408151 999.337837,397.296168 993.121503,405.903398 C986.993973,414.387671 978.670637,420.971101 968.235387,425.629695 C957.922101,430.233842 946.621315,432.530749 934.37636,432.530749 C921.215492,432.530749 909.507486,430.670174 899.265869,426.921011 C889.253928,423.255925 879.722938,417.399757 870.680103,409.38399 L869.975415,408.753774 L869.694636,408.509112 C865.50534,404.79295 863.172334,400.350541 862.941135,395.368974 L862.926739,394.9526 L862.922101,394.544807 C862.922101,390.152341 864.638927,386.166853 867.894761,382.79474 C871.201904,379.369484 875.288511,377.573854 879.893054,377.573854 C884.014558,377.573854 887.677517,378.963252 890.66077,381.697967 C897.17866,387.727015 903.839007,392.126881 910.639963,394.927274 C917.388265,397.705987 925.117888,399.107732 933.857471,399.107732 C943.853012,399.107732 952.141536,396.850763 958.838449,392.386154 C965.095462,388.214812 967.997048,383.345484 967.997931,377.513332 C967.854822,370.071635 964.876514,364.560054 958.827687,360.503782 C952.058903,355.964715 941.383825,352.049145 926.935919,348.893384 C908.376396,345.109404 893.929451,338.820197 883.643399,329.924152 C872.947475,320.673623 867.592099,307.84002 867.592099,291.804859 C867.592099,280.644686 870.559131,270.738626 876.492217,262.221777 C882.372825,253.78026 890.512023,247.297294 900.813591,242.802064 C910.952272,238.377913 922.325185,236.176703 934.895248,236.176703 Z M758.992004,236.176703 C776.639466,236.176703 792.556971,240.521999 806.643382,249.211669 C820.689419,257.876432 831.699093,269.708405 839.618392,284.636738 C847.51645,299.525032 851.461252,316.120406 851.461252,334.353726 C851.461252,352.587047 847.51645,369.18242 839.618392,384.070714 C831.699093,398.999047 820.689419,410.831021 806.643382,419.495784 C792.556971,428.185453 776.639466,432.530749 758.992004,432.530749 C741.344543,432.530749 725.427037,428.185453 711.340626,419.495784 C697.29459,410.831021 686.284915,398.999047 678.365617,384.070714 C670.467558,369.18242 666.522756,352.587047 666.522756,334.353726 C666.522756,316.120406 670.467558,299.525032 678.365617,284.636738 C686.284915,269.708405 697.29459,257.876432 711.340626,249.211669 C725.427037,240.521999 741.344543,236.176703 758.992004,236.176703 Z M598.686803,238.771147 L599.387822,238.775959 C609.183927,238.904915 618.298628,241.625687 626.636943,246.90662 C635.119025,252.278605 641.865333,259.591037 646.833165,268.776839 C651.799987,277.960774 654.283574,288.082564 654.283574,299.0693 C654.283574,310.045695 651.804929,320.240878 646.85212,329.585801 C641.890905,338.946583 635.150003,346.394573 626.668707,351.860297 C618.310303,357.246824 609.16838,360.018294 599.342084,360.141488 L598.655419,360.145786 L554.656415,360.145774 L554.656581,412.765964 L554.650442,413.223533 C554.538128,417.664238 552.969554,421.587908 550.007718,424.777578 C546.843301,428.185412 542.716194,429.936306 537.94545,429.936306 C533.028907,429.936306 528.85103,428.252684 525.748839,424.902317 C522.834462,421.754789 521.332503,417.767323 521.238635,413.167884 L521.233941,412.705909 L521.233941,255.939278 L521.240565,255.494119 C521.359003,250.976542 523.06848,246.999392 526.265333,243.802538 C529.481495,240.586376 533.482738,238.879685 538.023258,238.776158 L538.464338,238.771147 L598.686803,238.771147 Z M758.992004,270.378053 C748.121772,270.378053 738.504578,273.069285 730.031774,278.453871 C721.52704,283.858748 714.893404,291.366276 710.085712,301.061788 C705.234519,310.845029 702.799661,321.923631 702.799661,334.353726 C702.799661,346.608636 705.233279,357.60048 710.085712,367.38622 C714.897694,377.090383 721.540474,384.648036 730.058444,390.140933 C738.526232,395.601469 748.133289,398.329399 758.992004,398.329399 C769.85072,398.329399 779.457777,395.601469 787.925565,390.140933 C796.443535,384.648036 803.086315,377.090383 807.898296,367.38622 C812.750729,357.60048 815.184348,346.608636 815.184348,334.353726 C815.184348,322.098816 812.750729,311.106972 807.898296,301.321233 C803.086315,291.617069 796.443535,284.059416 787.925565,278.566519 C779.457777,273.105983 769.85072,270.378053 758.992004,270.378053 Z M598.655419,272.193774 L554.656415,272.193774 L554.656415,326.982213 L598.655419,326.982213 C602.260615,326.982213 605.573682,325.822639 608.735014,323.417278 C612.078767,320.873118 614.750664,317.469195 616.766546,313.138782 C618.805186,308.759482 619.82278,304.086085 619.82278,299.0693 C619.82278,291.334618 617.641407,284.93839 613.272158,279.680479 C609.146474,274.715673 604.497185,272.307394 599.046146,272.198066 L598.655419,272.193774 Z" id="Combined-Shape" fill="#2A5AFA" fill-rule="nonzero"></path>
        </g>
    </g>
</svg>