<?xml version="1.0" encoding="utf-8"?>
<!-- Generator: Adobe Illustrator 23.0.0, SVG Export Plug-In . SVG Version: 6.00 Build 0)  -->
<svg version="1.1" id="Layer_1" xmlns="http://www.w3.org/2000/svg" xmlns:xlink="http://www.w3.org/1999/xlink" x="0px" y="0px"
	 viewBox="0 0 176 22" style="enable-background:new 0 0 176 22;" xml:space="preserve">
<style type="text/css">
	.st0{fill:#EA6D97;}
	.st1{fill:#FFFFFF;}
</style>
<g>
	<g>
		<path class="st0" d="M16,15.1c0,0.2-0.1,0.5-0.3,0.6c-0.2,0.2-0.4,0.3-0.6,0.3h-4.6c-0.2,0-0.5-0.1-0.6-0.3
			c-0.2-0.2-0.3-0.4-0.3-0.6v-2.3H0v6.8c0,0.6,0.2,1.2,0.7,1.6c0.4,0.4,1,0.7,1.6,0.7h21c0.6,0,1.2-0.2,1.6-0.7
			c0.4-0.4,0.7-1,0.7-1.6v-6.8H16V15.1z"/>
		<rect x="11" y="12.8" class="st0" width="3.7" height="1.8"/>
		<path class="st0" d="M24.9,4.4c-0.4-0.4-1-0.7-1.6-0.7h-5V1.4c0-0.4-0.1-0.7-0.4-1S17.3,0,16.9,0H8.7C8.3,0,8,0.2,7.7,0.4
			C7.4,0.7,7.3,1,7.3,1.4v2.3h-5c-0.6,0-1.2,0.2-1.6,0.7C0.2,4.8,0,5.4,0,6v5.5h25.6V6C25.6,5.4,25.3,4.8,24.9,4.4L24.9,4.4z
			 M16.4,3.7H9.1V1.9h7.3V3.7z"/>
	</g>
</g>
<g>
	<path class="st0" d="M35.1,3.9l3,11.3L41,3.9h4l3,11.3l2.9-11.3H55l-5.1,15.6h-4.2L42.9,9L40,19.5h-4.2L30.7,3.9H35.1z"/>
	<path class="st0" d="M69.5,9.4c0,3.7-2.3,5.8-6.3,5.8h-2.8v4.3h-4.1V3.9h6.9C67.2,3.9,69.5,5.9,69.5,9.4z M65.7,9.5
		c0-1.5-1-2.4-2.6-2.4h-2.6V12H63C64.7,12,65.7,11.1,65.7,9.5z"/>
	<path class="st0" d="M91.3,9.4c0,3.7-2.3,5.8-6.3,5.8h-2.8v4.3h-4.1V3.9H85C89,3.9,91.3,5.9,91.3,9.4z M87.4,9.5
		c0-1.5-1-2.4-2.6-2.4h-2.6V12h2.6C86.5,12,87.4,11.1,87.4,9.5z"/>
	<path class="st0" d="M105.5,13.5c0,3.7-2.6,6.2-6.6,6.2s-6.6-2.4-6.6-6.2c0-3.7,2.6-6.1,6.6-6.1S105.5,9.8,105.5,13.5z M96.3,13.5
		c0,1.8,1,3,2.6,3c1.6,0,2.6-1.2,2.6-3c0-1.8-1-3-2.6-3C97.4,10.6,96.3,11.8,96.3,13.5z"/>
	<path class="st0" d="M115.3,7.3V11c-2.2-0.2-3.7,0.8-3.9,2.4v6.1h-4v-12h4v2C112.3,8.1,113.7,7.3,115.3,7.3z"/>
	<path class="st0" d="M124.9,18.9c-0.9,0.5-2.1,0.8-3.2,0.8c-2.3,0-4-1.4-4-3.9v-5.2H116V8.1h1.7V4.7h3.9v3.3h3.1v2.6h-3.1v4.5
		c0,0.9,0.4,1.3,1.1,1.3c0.4,0,0.9-0.2,1.5-0.4L124.9,18.9z"/>
	<path class="st0" d="M131.4,7.3v0.8h2.7v2.6h-2.7v8.8h-3.9v-8.8h-1.6V8.1h1.6V7c0-2.6,2-4.1,4.6-4.1c1.2,0,2.5,0.3,3.4,0.8
		l-1.4,2.8c-0.4-0.3-1-0.5-1.4-0.5C132,6,131.4,6.4,131.4,7.3z"/>
	<path class="st0" d="M147.6,13.5c0,3.7-2.6,6.2-6.6,6.2s-6.6-2.4-6.6-6.2c0-3.7,2.6-6.1,6.6-6.1S147.6,9.8,147.6,13.5z M138.5,13.5
		c0,1.8,1,3,2.6,3c1.6,0,2.6-1.2,2.6-3c0-1.8-1-3-2.6-3C139.5,10.6,138.5,11.8,138.5,13.5z"/>
	<path class="st0" d="M153.7,3v16.5h-4V3H153.7z"/>
	<path class="st0" d="M160.8,7.5v12h-3.9v-12H160.8z M160.7,4.1c0,1-0.8,1.8-1.8,1.8c-1,0-1.8-0.8-1.8-1.8c0-1.1,0.8-1.8,1.8-1.8
		C159.9,2.3,160.7,3,160.7,4.1z"/>
	<path class="st0" d="M176,13.5c0,3.7-2.6,6.2-6.6,6.2s-6.6-2.4-6.6-6.2c0-3.7,2.6-6.1,6.6-6.1S176,9.8,176,13.5z M166.8,13.5
		c0,1.8,1,3,2.6,3c1.6,0,2.6-1.2,2.6-3c0-1.8-1-3-2.6-3C167.9,10.6,166.8,11.8,166.8,13.5z"/>
</g>
<rect x="71.9" y="68.3" class="st1" width="135.4" height="29.9"/>
</svg>
